
<svg version="1.0" xmlns="http://www.w3.org/2000/svg"
 width="1280.000000pt" height="640.000000pt" viewBox="0 0 1280.000000 640.000000"
 preserveAspectRatio="xMidYMid meet">
<metadata>
Created by potrace 1.15, written by Peter Selinger 2001-2017
</metadata>
<g transform="translate(0.000000,640.000000) scale(0.100000,-0.100000)"
fill="#000000" stroke="none">
<path d="M2912 6287 c-34 -38 -122 -179 -122 -197 0 -9 -11 -38 -25 -64 -14
-26 -25 -50 -25 -54 0 -16 34 45 56 101 27 70 124 218 139 213 6 -1 14 -17 20
-34 5 -18 13 -32 17 -32 4 0 8 -5 8 -11 0 -8 -4 -8 -15 1 -20 17 -81 -5 -102
-36 -24 -38 -33 -102 -17 -119 12 -12 11 -21 -4 -62 -25 -63 -35 -106 -24 -99
5 3 12 19 15 36 12 57 46 120 66 120 31 0 80 33 94 63 14 33 29 36 24 5 -2
-13 -2 -17 0 -10 3 9 15 11 39 6 24 -4 45 0 72 14 l38 20 -9 -59 c-9 -54 -6
-81 8 -67 3 3 8 35 12 72 6 69 13 77 50 51 14 -10 23 -30 28 -64 8 -62 26 -79
66 -64 27 10 31 9 59 -26 16 -21 35 -51 41 -67 10 -23 13 -25 16 -11 3 9 -11
39 -29 65 -19 26 -37 52 -41 58 -10 17 58 101 89 108 19 5 24 10 16 18 -13 13
-52 -15 -96 -68 -27 -33 -29 -34 -47 -18 -22 20 -25 13 -6 -16 10 -17 9 -22
-3 -30 -28 -18 -45 -7 -48 34 -3 33 -1 38 14 32 14 -5 15 -4 4 9 -10 13 -9 15
9 15 32 0 26 25 -17 68 -21 21 -42 47 -46 57 -6 17 -9 16 -39 -12 -27 -25
-112 -61 -122 -51 -2 2 -8 19 -13 38 -9 34 -10 34 -19 11 -9 -23 -10 -23 -60
27 l-51 51 -20 -22z m318 -66 c0 -24 -18 -37 -32 -23 -8 8 -7 16 2 27 17 21
30 19 30 -4z m-206 -36 c3 -8 1 -15 -3 -15 -5 0 -11 7 -15 15 -3 8 -1 15 3 15
5 0 11 -7 15 -15z"/>
<path d="M3385 6261 c-27 -16 -59 -39 -70 -52 -12 -14 3 -7 40 19 33 22 67 42
77 44 21 4 117 -55 179 -111 27 -24 53 -41 57 -37 4 5 -11 24 -33 43 -39 34
-179 123 -193 123 -4 0 -29 -13 -57 -29z"/>
<path d="M9926 6216 c-40 -79 -70 -99 -79 -53 l-4 22 -2 -23 c0 -14 -12 -29
-30 -40 -16 -9 -36 -30 -45 -47 -14 -29 -15 -30 -16 -5 0 15 -3 20 -8 13 -4
-6 -24 -11 -44 -10 -25 1 -48 -7 -69 -22 l-31 -23 3 62 c3 48 1 64 -10 68 -12
4 -13 -8 -8 -72 4 -45 3 -76 -3 -76 -29 0 -60 27 -81 73 -26 57 -49 69 -79 42
-18 -16 -21 -16 -57 5 -21 13 -51 35 -67 49 -17 15 -27 20 -24 11 4 -14 68
-68 105 -89 15 -8 14 -14 -7 -65 -12 -31 -31 -63 -42 -70 -11 -8 -15 -17 -10
-20 14 -8 47 36 68 90 9 24 18 44 19 44 2 0 22 -9 46 -20 39 -18 42 -20 22
-26 -13 -4 -23 -9 -23 -13 0 -11 70 -76 70 -65 0 5 9 -2 20 -16 l20 -25 24 28
c25 31 69 57 96 57 11 0 21 -12 28 -32 10 -31 11 -32 17 -11 l7 23 32 -26 c17
-15 34 -35 38 -45 4 -11 13 -19 21 -19 16 0 134 160 159 216 10 23 25 47 33
54 9 8 21 23 27 34 9 18 7 18 -17 -4 -15 -14 -38 -47 -52 -75 -35 -69 -143
-216 -154 -209 -5 3 -9 11 -9 17 0 7 -7 24 -14 40 -8 15 -11 27 -6 27 4 0 10
-5 12 -11 7 -20 75 9 97 40 26 36 39 110 22 121 -10 5 -5 23 19 69 17 35 30
67 28 73 -2 5 -21 -24 -42 -66z m-443 -119 c12 -36 4 -43 -28 -29 -31 14 -43
41 -24 53 23 15 42 6 52 -24z m272 -88 c11 -17 -1 -21 -15 -4 -8 9 -8 15 -2
15 6 0 14 -5 17 -11z m-165 -36 c0 -5 -7 -16 -14 -26 -16 -20 -32 -6 -22 18 5
15 36 21 36 8z"/>
<path d="M2408 6246 c-40 -35 -83 -94 -75 -103 3 -2 12 8 20 24 9 15 31 43 51
62 l36 34 77 -18 c43 -10 100 -30 126 -43 45 -22 73 -23 51 -3 -13 13 -119 49
-190 65 l-61 14 -35 -32z"/>
<path d="M9583 6220 c0 -25 2 -35 4 -22 2 12 2 32 0 45 -2 12 -4 2 -4 -23z"/>
<path d="M10267 6203 c3 -10 20 -36 38 -58 17 -22 35 -46 39 -53 9 -15 -57
-98 -85 -107 -10 -4 -19 -11 -19 -16 0 -20 22 -7 72 45 l53 54 39 -35 c38 -35
38 -36 12 -31 -25 5 -27 4 -21 -21 8 -32 32 -71 44 -71 5 0 12 -12 15 -26 l7
-26 32 25 c34 26 87 40 112 31 12 -5 14 -15 10 -43 -6 -34 -5 -35 9 -17 9 11
17 18 19 15 2 -2 13 -17 25 -33 12 -16 22 -39 22 -52 0 -13 6 -24 13 -24 16 0
172 112 222 160 22 21 51 43 63 50 13 6 21 14 19 17 -9 9 -51 -18 -97 -62 -40
-39 -195 -155 -206 -155 -2 0 -4 16 -4 35 0 36 5 39 55 36 12 -1 36 8 55 21
39 27 79 96 62 107 -8 5 5 23 34 52 74 71 74 90 0 21 -69 -64 -92 -72 -90 -32
1 22 1 22 -15 2 -9 -11 -31 -23 -48 -27 -18 -4 -40 -16 -48 -28 -30 -43 -23
-8 11 56 19 37 32 67 27 67 -5 0 -20 -28 -35 -61 -23 -51 -30 -60 -45 -54 -33
15 -81 17 -102 6 -25 -14 -25 -12 -7 53 24 87 37 148 32 154 -3 3 -7 -1 -9 -9
-3 -8 -14 -45 -26 -84 -11 -38 -24 -85 -27 -102 -7 -38 -11 -39 -41 -14 -15
13 -24 35 -30 77 -7 55 -10 59 -36 62 -16 2 -34 -2 -42 -8 -10 -8 -18 -3 -35
25 -12 19 -25 35 -30 35 -4 0 -13 14 -20 30 -13 31 -34 43 -23 13z m173 -143
c0 -37 -2 -40 -20 -30 -24 13 -43 47 -35 60 3 6 17 10 31 10 21 0 24 -4 24
-40z m50 -165 c-7 -8 -16 -15 -21 -15 -13 0 -11 24 3 38 18 18 35 -3 18 -23z
m184 -1 c3 -8 2 -12 -4 -9 -6 3 -10 10 -10 16 0 14 7 11 14 -7z"/>
<path d="M9757 6190 c-4 -14 -6 -36 -6 -50 1 -18 4 -14 10 14 10 44 6 75 -4
36z"/>
<path d="M2214 6147 c-16 -32 -69 -77 -92 -77 -7 0 -18 11 -24 25 -13 30 -28
33 -28 6 0 -19 -2 -19 -37 -4 -21 8 -46 22 -55 30 -10 9 -24 13 -32 10 -33
-13 -97 -287 -67 -287 7 0 11 20 11 52 0 51 47 228 60 228 9 0 40 -45 40 -58
0 -5 -12 -15 -26 -22 -31 -17 -54 -59 -54 -98 0 -41 19 -92 33 -86 9 3 11 -12
9 -53 -2 -32 1 -69 7 -83 8 -20 10 -7 9 60 0 63 3 85 13 89 8 2 29 19 47 37
23 23 32 41 32 65 0 40 16 28 23 -16 l4 -30 2 33 c1 29 4 32 32 32 21 0 40 10
60 30 33 32 34 31 44 -42 6 -50 25 -76 25 -36 0 13 -6 47 -14 76 -12 47 -11
52 3 52 37 0 60 -14 72 -41 6 -17 20 -41 31 -54 17 -21 23 -23 41 -13 12 6 25
16 29 21 7 12 81 -34 110 -68 10 -11 17 -15 18 -9 0 12 -46 56 -90 87 l-22 15
18 49 c10 26 29 58 42 70 14 13 19 24 13 28 -12 7 -68 -76 -78 -113 -3 -15
-11 -21 -19 -18 -42 17 -48 18 -26 2 27 -21 28 -42 2 -56 -17 -9 -22 -6 -37
25 -15 31 -15 37 -3 45 13 9 13 10 0 10 -13 0 -13 2 0 9 8 6 18 7 22 5 4 -3 8
-1 8 3 0 17 -69 76 -83 70 -7 -3 -19 4 -25 14 -17 27 -30 24 -48 -14z m41 -17
c-7 -11 -35 -14 -35 -4 0 3 5 15 11 26 10 19 12 20 21 5 5 -10 6 -22 3 -27z
m-180 -80 c3 -5 -1 -10 -9 -10 -8 0 -18 5 -21 10 -3 6 1 10 9 10 8 0 18 -4 21
-10z"/>
<path d="M3830 6097 c-47 -35 -94 -77 -104 -93 -11 -16 -35 -44 -55 -61 -19
-18 -32 -35 -29 -38 3 -3 35 28 72 69 79 88 215 188 217 159 1 -10 3 -34 5
-53 2 -26 0 -30 -7 -18 -11 20 -74 18 -109 -4 -37 -22 -78 -118 -50 -118 5 0
-12 -28 -40 -62 -27 -34 -47 -64 -45 -67 3 -3 13 6 22 20 41 58 90 102 107 96
14 -6 15 -11 6 -29 -11 -22 -10 -22 4 -4 9 11 16 23 16 28 0 4 13 8 28 8 17 0
38 10 52 25 28 29 37 26 19 -7 -11 -21 -11 -22 4 -10 13 11 21 10 47 -3 22
-11 44 -15 66 -10 19 3 34 3 34 -1 0 -4 -12 -27 -26 -51 -14 -25 -23 -47 -20
-50 3 -3 -4 -23 -15 -45 -11 -22 -19 -42 -17 -44 5 -4 98 181 98 195 0 18 15
13 38 -12 21 -22 22 -28 11 -76 -14 -66 -8 -79 36 -83 33 -3 38 -7 51 -43 7
-22 14 -56 14 -74 0 -26 3 -32 11 -24 12 12 -3 97 -22 135 -7 13 2 23 40 47
26 17 60 31 74 31 15 0 27 5 27 10 0 18 -31 11 -92 -20 -66 -34 -68 -34 -68
-19 0 6 -9 22 -20 36 -22 28 -20 43 3 25 8 -7 17 -9 21 -5 9 9 -4 75 -19 93
-7 8 -15 27 -19 43 l-6 27 -38 -18 c-26 -12 -50 -16 -82 -12 l-45 5 3 40 c2
37 2 39 -13 21 -8 -11 -16 -18 -18 -15 -26 33 -46 69 -48 89 -2 14 -11 26 -19
27 -8 2 -53 -25 -100 -60z m150 -89 c0 -5 -4 -8 -10 -8 -5 0 -10 10 -10 23 0
18 2 19 10 7 5 -8 10 -18 10 -22z m210 -15 c-1 -21 -19 -35 -36 -29 -18 7 -18
8 0 22 22 15 36 18 36 7z m30 -205 c0 -15 -6 -19 -27 -16 -23 2 -28 7 -25 28
5 50 12 57 33 31 10 -13 19 -32 19 -43z"/>
<path d="M8950 6133 c0 -15 -5 -53 -12 -85 -9 -44 -16 -58 -29 -58 -10 0 -20
10 -22 23 -3 14 -4 10 -4 -10 1 -20 -7 -41 -20 -55 -12 -13 -23 -36 -25 -53
l-4 -30 -12 35 c-9 26 -11 29 -9 9 3 -23 -1 -28 -35 -38 -26 -8 -45 -23 -58
-43 -13 -22 -21 -27 -24 -17 -2 8 -10 31 -16 51 -12 39 -40 72 -40 47 0 -8 11
-38 25 -67 14 -30 25 -58 25 -63 0 -5 -16 -9 -34 -9 -28 0 -40 7 -62 35 -38
51 -57 58 -82 35 -11 -10 -22 -24 -24 -30 -4 -13 -84 3 -130 27 -16 8 -28 9
-28 4 0 -15 27 -27 93 -42 l57 -14 0 -58 c0 -32 -5 -67 -11 -79 -6 -11 -8 -23
-4 -26 12 -12 23 22 30 90 6 55 10 68 22 64 8 -3 29 -6 46 -6 29 -1 30 -2 15
-14 -10 -7 -18 -16 -18 -19 0 -10 62 -37 86 -37 13 0 26 -4 29 -10 12 -20 36
-9 41 19 7 32 56 91 76 91 7 0 21 -12 30 -27 17 -27 17 -27 18 -5 0 20 4 22
23 16 33 -10 60 -22 79 -36 9 -7 20 -10 23 -7 11 11 57 184 66 246 4 35 13 72
19 82 5 11 10 26 10 33 -1 31 -29 -43 -39 -107 -7 -38 -24 -110 -39 -158 l-26
-88 -25 25 -24 25 37 33 c40 36 53 81 42 143 -5 27 -11 35 -22 31 -12 -5 -13
7 -8 74 4 44 4 80 0 80 -3 0 -6 -12 -6 -27z m-360 -346 c0 -10 -77 -4 -87 7
-3 3 2 17 12 32 l17 26 29 -28 c16 -15 29 -32 29 -37z m270 38 c14 -16 10 -18
-14 -9 -9 3 -16 10 -16 15 0 14 16 11 30 -6z m-150 -94 c0 -5 -3 -17 -6 -25
-5 -13 -10 -14 -20 -6 -7 7 -10 18 -7 26 6 15 33 20 33 5z"/>
<path d="M3002 6040 c0 -14 2 -19 5 -12 2 6 2 18 0 25 -3 6 -5 1 -5 -13z"/>
<path d="M2911 6014 c0 -11 3 -14 6 -6 3 7 2 16 -1 19 -3 4 -6 -2 -5 -13z"/>
<path d="M8792 6010 c0 -8 4 -26 8 -40 6 -20 8 -21 8 -5 0 11 -3 29 -8 40 -5
12 -8 14 -8 5z"/>
<path d="M8617 5965 c9 -19 18 -33 20 -31 6 6 -19 66 -28 66 -5 0 -1 -16 8
-35z"/>
<path d="M3153 5955 c0 -22 2 -30 4 -17 2 12 2 30 0 40 -3 9 -5 -1 -4 -23z"/>
<path d="M10050 5981 c0 -11 93 -74 176 -121 l42 -22 43 26 c52 31 89 61 89
72 0 4 -12 -4 -27 -18 -16 -14 -46 -35 -69 -46 l-40 -20 -42 26 c-22 15 -60
39 -84 54 -24 15 -53 35 -65 44 -14 10 -23 12 -23 5z"/>
<path d="M4382 5961 c28 -6 135 -135 158 -190 12 -31 38 -45 26 -15 -11 28
-75 120 -117 168 -30 34 -47 46 -67 45 l-27 -1 27 -7z"/>
<path d="M1560 5955 c-8 -2 -31 -6 -51 -10 -32 -5 -39 -11 -57 -53 -11 -26
-23 -65 -26 -87 -5 -30 -2 -25 12 20 30 99 32 101 140 115 52 6 115 9 138 5
29 -4 44 -2 44 4 0 10 -159 14 -200 6z"/>
<path d="M4273 5945 c-46 -19 -41 -28 5 -11 20 8 46 17 57 19 16 4 15 5 -5 5
-14 1 -40 -5 -57 -13z"/>
<path d="M9451 5927 c-11 -18 -31 -43 -45 -56 l-26 -24 -77 18 c-43 10 -96 24
-117 32 -37 12 -57 11 -43 -3 4 -4 59 -19 124 -35 l117 -28 33 37 c32 36 68
92 59 92 -2 0 -13 -15 -25 -33z"/>
<path d="M11226 5918 c-6 -14 9 -86 29 -140 7 -17 -84 -68 -119 -68 -14 0 -26
-4 -26 -10 0 -17 32 -11 88 15 62 29 72 30 72 11 0 -8 4 -18 10 -21 6 -4 7 6
4 25 -6 27 -4 30 19 30 34 0 41 -13 27 -56 -10 -29 -14 -33 -26 -23 -12 10
-13 9 -8 -6 6 -15 4 -16 -13 -7 -11 6 -23 9 -26 6 -7 -7 4 -87 14 -100 4 -5 6
-20 2 -32 -6 -24 9 -28 49 -13 35 12 99 -9 109 -37 5 -13 5 -21 0 -18 -5 3
-12 -1 -15 -10 -9 -24 -7 -28 8 -15 20 17 28 0 30 -67 1 -31 6 -56 11 -55 67
10 212 47 249 63 26 11 61 20 76 20 16 0 32 5 35 11 9 14 -55 2 -118 -22 -53
-21 -236 -63 -243 -56 -3 2 0 16 6 31 8 23 14 25 37 19 65 -16 117 -9 156 21
28 21 35 32 27 41 -8 10 6 19 60 41 39 15 73 31 76 36 8 12 1 10 -53 -13 -76
-33 -105 -40 -120 -27 -11 9 -10 14 4 32 18 21 18 21 -3 3 -16 -13 -31 -17
-56 -12 -18 3 -45 2 -60 -4 -23 -9 -28 -7 -33 9 -10 31 -54 60 -93 60 l-35 0
42 45 c22 24 41 51 41 58 0 7 11 24 25 37 14 13 25 30 25 38 0 8 -12 -1 -27
-21 -16 -19 -47 -58 -70 -86 -22 -28 -43 -56 -45 -63 -6 -16 -27 -1 -38 27 -6
15 -4 40 7 73 20 63 13 82 -30 82 -32 0 -34 2 -50 58 -9 31 -18 68 -20 82 -3
21 -5 22 -11 8z m100 -359 c7 -12 -12 -29 -34 -29 -10 0 -10 5 -2 20 12 22 25
26 36 9z m151 -101 c-3 -7 -5 -2 -5 12 0 14 2 19 5 13 2 -7 2 -19 0 -25z m23
-32 c0 -3 -4 -8 -10 -11 -5 -3 -10 -1 -10 4 0 6 5 11 10 11 6 0 10 -2 10 -4z"/>
<path d="M2090 5885 c0 -14 4 -25 9 -25 4 0 6 11 3 25 -2 14 -6 25 -8 25 -2 0
-4 -11 -4 -25z"/>
<path d="M2251 5890 c0 -14 4 -32 9 -40 8 -12 10 -12 9 5 0 11 -4 29 -9 40 -8
18 -9 18 -9 -5z"/>
<path d="M3895 5870 c-9 -16 -13 -30 -11 -30 3 0 12 14 21 30 9 17 13 30 11
30 -3 0 -12 -13 -21 -30z"/>
<path d="M2011 5864 c0 -11 3 -14 6 -6 3 7 2 16 -1 19 -3 4 -6 -2 -5 -13z"/>
<path d="M1562 5840 c-6 -14 -14 -51 -17 -82 l-6 -58 -47 0 c-44 1 -46 2 -28
15 29 22 7 38 -53 40 -28 1 -54 5 -58 8 -16 17 -31 4 -38 -30 -8 -44 -28 -84
-49 -102 -12 -10 -19 -10 -38 3 -30 21 -37 20 -31 -4 5 -18 0 -20 -36 -20 -23
0 -52 5 -63 11 -36 19 -41 -1 -28 -112 7 -63 21 -126 36 -161 13 -32 24 -66
24 -77 0 -11 4 -22 9 -25 12 -8 0 45 -26 114 -12 30 -24 91 -28 135 -3 44 -9
88 -11 98 -7 23 17 22 47 -2 l24 -19 -22 -31 c-25 -33 -30 -80 -12 -114 18
-34 50 -66 63 -61 6 2 23 -26 40 -67 15 -38 30 -68 33 -66 2 3 -5 28 -17 55
-27 62 -32 117 -10 116 12 -1 15 13 15 68 0 37 3 68 8 68 4 0 7 -4 7 -8 0 -5
7 -17 16 -28 15 -18 15 -18 5 3 -15 29 -14 43 2 43 20 0 57 43 66 75 l7 29 29
-50 c15 -27 34 -52 41 -57 7 -4 22 -23 34 -43 12 -19 24 -33 26 -31 5 4 -44
82 -97 156 -25 34 -29 45 -18 52 28 17 62 8 100 -26 47 -42 65 -44 86 -7 l16
29 54 -13 c30 -7 61 -18 69 -25 8 -6 17 -9 20 -6 10 9 -39 34 -93 48 l-53 13
0 61 c0 34 5 66 11 72 6 6 9 17 6 25 -3 8 -8 4 -15 -12z m-202 -111 c0 -10 -7
-19 -15 -19 -9 0 -15 9 -15 25 0 18 4 23 15 19 8 -4 15 -15 15 -25z m175 -49
c9 -14 -4 -50 -18 -50 -13 0 -57 40 -57 52 0 12 68 10 75 -2z m-305 -100 c0
-5 -6 -10 -14 -10 -8 0 -18 5 -21 10 -3 6 3 10 14 10 12 0 21 -4 21 -10z"/>
<path d="M1871 5820 c-1 -8 -4 -26 -7 -40 -5 -22 -4 -23 6 -7 6 10 9 28 7 40
-2 12 -5 15 -6 7z"/>
<path d="M10940 5769 c0 -5 33 -53 73 -105 58 -76 77 -94 97 -93 l25 1 -23 7
c-23 6 -33 18 -122 144 -41 57 -50 66 -50 46z"/>
<path d="M8050 5700 c0 -8 5 -31 10 -50 6 -19 13 -54 16 -77 4 -34 2 -42 -13
-47 -25 -8 -46 -77 -33 -111 18 -47 -8 -25 -42 35 -18 33 -36 60 -40 60 -3 0
9 -26 28 -57 32 -53 33 -59 18 -68 -38 -21 -64 -55 -65 -82 l0 -28 -22 29
c-24 32 -147 160 -131 136 29 -42 82 -109 113 -142 37 -40 35 -51 -10 -61 -18
-5 -36 1 -62 18 -55 38 -80 37 -92 -2 -8 -31 -13 -33 -55 -35 -25 -1 -63 -1
-85 1 -30 1 -36 -1 -25 -8 8 -6 47 -11 86 -11 l71 0 15 -57 c11 -39 13 -64 7
-81 -7 -18 -6 -23 3 -19 14 4 16 39 4 109 -7 46 -6 47 21 54 15 3 37 8 48 11
19 6 19 5 2 -15 -21 -23 -17 -27 39 -37 27 -4 44 -2 49 5 5 8 11 8 21 -1 23
-19 41 -4 36 29 -5 34 31 112 52 112 7 0 19 -7 26 -15 18 -21 32 -19 25 5 -6
17 -2 20 29 20 19 0 47 -5 61 -12 15 -7 29 -8 34 -2 8 9 -1 182 -17 324 -6 54
-8 60 -14 35 -4 -17 0 -59 7 -95 8 -36 14 -109 15 -162 l0 -98 -24 12 c-35 15
-38 32 -13 64 26 34 27 79 2 134 -13 29 -23 40 -35 37 -14 -4 -19 8 -29 62
-12 65 -31 115 -31 81z m20 -350 c12 -8 11 -10 -7 -10 -13 0 -23 5 -23 10 0
13 11 13 30 0z m-272 -98 c28 -18 13 -32 -35 -32 -25 0 -33 4 -33 18 0 10 5
23 12 30 11 11 14 10 56 -16z m152 -58 c0 -22 -2 -25 -15 -14 -8 7 -15 19 -15
26 0 8 7 14 15 14 10 0 15 -10 15 -26z"/>
<path d="M4699 5661 c-47 -15 -106 -41 -131 -59 -25 -17 -57 -34 -72 -38 -14
-3 -29 -11 -32 -16 -11 -17 37 2 106 42 50 30 213 90 243 90 2 0 1 -15 -2 -32
-6 -25 -12 -32 -27 -30 -106 17 -109 16 -153 -23 -26 -23 -40 -44 -37 -54 3
-11 -13 -27 -56 -54 -33 -21 -58 -41 -54 -44 3 -3 20 5 38 19 56 42 99 60 115
47 11 -10 11 -15 -4 -33 -18 -21 -18 -21 3 -3 12 10 37 17 60 17 22 0 50 7 62
16 44 30 21 -6 -33 -52 -30 -26 -52 -50 -50 -53 3 -2 27 17 54 43 l48 47 31
-30 c21 -21 40 -31 61 -31 41 0 39 -13 -9 -51 -22 -18 -40 -38 -40 -44 0 -6
-13 -24 -30 -40 -16 -16 -30 -33 -30 -39 0 -6 38 29 84 78 47 48 89 85 94 82
22 -13 22 -56 2 -97 -28 -54 -23 -81 17 -92 l32 -10 -3 -73 c-1 -40 1 -71 6
-68 4 3 8 38 8 78 l0 73 58 16 c31 9 67 14 80 11 14 -4 22 -2 22 6 0 13 -63
10 -131 -6 -24 -5 -27 -2 -41 40 -17 51 -16 53 7 30 9 -9 19 -14 22 -10 11 11
15 94 4 100 -6 4 -8 19 -5 34 6 27 5 27 -53 27 -40 0 -68 6 -86 18 -26 17 -27
18 -11 43 19 27 12 43 -10 25 -11 -9 -15 -5 -22 26 -4 21 -7 53 -5 71 2 28 0
32 -21 31 -13 0 -62 -13 -109 -28z m121 -123 c0 -16 -3 -19 -11 -11 -6 6 -8
16 -5 22 11 17 16 13 16 -11z m184 -92 c-7 -19 -35 -18 -41 1 -2 6 6 13 19 15
29 5 30 4 22 -16z m-26 -169 c3 -31 0 -37 -17 -37 -28 0 -35 17 -21 51 16 39
34 32 38 -14z"/>
<path d="M8596 5650 c-5 -19 -17 -51 -27 -72 l-18 -36 -121 -7 c-66 -4 -120
-11 -120 -16 0 -12 66 -10 169 4 l85 12 23 59 c13 32 22 66 20 75 -2 9 -7 0
-11 -19z"/>
<path d="M11558 5565 c-26 -25 -44 -45 -40 -45 11 1 107 90 97 90 -6 0 -31
-21 -57 -45z"/>
<path d="M11165 5590 c-28 -7 -28 -8 -5 -9 14 0 32 4 40 9 17 11 8 11 -35 0z"/>
<path d="M8020 5551 c0 -6 4 -13 10 -16 6 -3 7 1 4 9 -7 18 -14 21 -14 7z"/>
<path d="M1289 5465 c17 -33 31 -51 31 -40 0 6 -10 21 -21 35 -13 17 -17 18
-10 5z"/>
<path d="M5050 5380 c-10 -7 1 -8 35 -4 28 4 52 8 54 10 10 9 -75 3 -89 -6z"/>
<path d="M895 5360 c-27 -11 -79 -37 -115 -58 l-65 -37 -3 -73 c-2 -40 1 -79
5 -87 5 -9 9 19 8 67 l0 82 75 42 c41 23 96 48 123 54 26 7 47 16 47 21 0 13
-19 10 -75 -11z"/>
<path d="M5177 5373 c12 -2 26 -10 31 -16 12 -17 70 -176 78 -215 3 -20 10
-30 15 -25 11 11 -18 105 -59 196 -28 60 -33 67 -59 66 -22 -1 -24 -3 -6 -6z"/>
<path d="M11993 5268 c-4 -7 -10 -41 -14 -76 -4 -35 -10 -66 -13 -70 -4 -3
-40 -6 -81 -7 -41 0 -75 -3 -75 -7 0 -5 36 -8 80 -8 l80 0 0 -29 c0 -16 3 -38
7 -48 6 -17 6 -17 -15 1 -21 18 -21 18 -37 -20 -9 -21 -13 -49 -10 -61 3 -12
1 -25 -5 -28 -24 -15 -9 -35 26 -35 47 0 104 -43 102 -75 -1 -13 -5 -23 -8
-23 -18 2 -30 -3 -30 -13 0 -6 8 -8 19 -4 18 5 19 2 14 -32 -3 -21 -13 -48
-21 -61 -9 -13 -11 -26 -6 -31 12 -11 218 -33 274 -29 25 1 61 -1 80 -6 29 -7
33 -6 22 5 -8 9 -46 14 -120 15 -97 1 -238 17 -248 27 -2 2 7 14 21 27 l25 23
23 -20 c31 -29 61 -43 92 -43 38 0 95 27 95 44 0 13 13 16 63 17 34 0 71 4 82
9 12 6 -13 7 -69 4 -66 -3 -92 -1 -98 8 -12 20 -10 26 13 33 11 4 18 9 16 12
-3 3 -14 0 -24 -5 -13 -8 -26 -6 -51 10 -23 14 -42 18 -63 14 -38 -7 -37 0 4
19 29 13 30 14 4 8 -24 -5 -29 -1 -38 27 -8 23 -23 37 -52 50 l-40 18 54 27
c30 15 55 31 57 36 2 5 21 19 43 31 21 12 39 25 39 29 0 7 -40 -15 -160 -86
-25 -15 -47 -28 -50 -29 -2 0 -7 13 -11 31 -5 26 0 38 27 73 19 24 34 48 34
55 0 15 -32 45 -49 45 -12 0 -10 93 4 138 8 24 1 30 -12 10z m47 -192 c0 -17
-45 -58 -53 -49 -12 11 -8 71 6 76 17 6 47 -11 47 -27z m-80 -171 c0 -10 -10
-15 -26 -15 -22 0 -25 2 -14 15 7 8 19 15 26 15 8 0 14 -7 14 -15z m116 -141
c-4 -9 -9 -15 -11 -12 -3 3 -3 13 1 22 4 9 9 15 11 12 3 -3 3 -13 -1 -22z"/>
<path d="M11680 5240 c0 -14 14 -72 30 -130 17 -58 30 -105 30 -106 0 -7 113
-25 135 -21 26 3 25 4 -9 6 -69 2 -116 21 -122 50 -3 14 -14 55 -25 90 -10 35
-19 74 -19 85 0 12 -5 28 -10 36 -8 12 -10 10 -10 -10z"/>
<path d="M829 5213 c-3 -23 4 -70 17 -106 8 -22 13 -41 12 -42 -2 -1 -12 -7
-23 -14 -18 -11 -18 -12 6 -7 29 6 43 -11 33 -39 -7 -18 -24 -19 -58 -3 -22 9
-24 14 -13 26 10 13 9 15 -5 9 -12 -4 -18 -2 -18 8 0 8 5 15 11 15 5 0 8 4 5
9 -8 12 -97 6 -105 -7 -3 -5 -17 -9 -31 -8 -21 1 -25 -3 -22 -24 6 -55 3 -93
-8 -120 -10 -25 -15 -28 -37 -19 -36 13 -47 11 -33 -6 7 -9 11 -17 9 -18 -18
-13 -65 -27 -90 -27 -16 0 -32 -6 -35 -14 -7 -18 87 -205 116 -231 12 -11 33
-39 47 -63 14 -24 27 -41 30 -38 7 7 -17 47 -58 96 -20 25 -58 87 -83 138
l-46 92 50 -1 c38 -2 46 -5 36 -13 -23 -18 -27 -77 -8 -113 23 -42 83 -88 94
-71 5 9 23 -5 59 -45 28 -32 54 -56 57 -53 2 3 -18 31 -47 61 -55 61 -56 62
-41 85 7 12 12 12 22 2 6 -6 17 -12 22 -12 6 0 0 7 -12 16 -15 10 -22 25 -22
48 0 19 -9 45 -21 60 -23 29 -15 35 13 9 10 -9 18 -11 18 -5 0 6 -4 13 -10 17
-5 3 2 22 16 43 19 28 24 45 20 70 l-5 33 29 -21 c16 -12 32 -25 35 -31 4 -5
23 -17 43 -27 20 -10 51 -26 67 -36 29 -17 29 -17 6 1 -14 10 -43 33 -65 51
-22 19 -57 43 -78 55 -21 12 -38 25 -38 29 0 4 13 14 29 22 25 13 34 13 80 -2
60 -19 84 -10 89 31 3 23 9 26 57 32 30 4 61 5 70 2 8 -4 17 -2 20 3 9 15 -30
20 -93 12 l-61 -9 -22 54 c-13 33 -19 62 -15 78 4 14 2 25 -4 25 -5 0 -10 -3
-11 -7z m-160 -172 c8 -5 11 -16 8 -25 -7 -17 -27 -22 -27 -7 0 5 -3 16 -6 25
-7 18 4 20 25 7z m-59 -201 c0 -5 -10 -10 -22 -10 -19 0 -20 2 -8 10 19 13 30
13 30 0z"/>
<path d="M7862 5095 c-4 -107 1 -103 -192 -169 -35 -12 -59 -25 -53 -29 6 -4
63 14 127 40 131 52 129 50 123 153 l-3 65 -2 -60z"/>
<path d="M7320 5029 c0 -4 16 -41 36 -83 28 -62 33 -80 23 -92 -10 -13 -15
-12 -33 3 -21 18 -21 18 -3 -4 14 -16 17 -30 12 -52 -4 -20 -1 -42 8 -61 23
-46 5 -36 -48 25 -26 31 -50 53 -53 50 -3 -3 16 -27 42 -54 l47 -48 -30 -31
c-24 -23 -31 -39 -31 -68 l0 -38 -43 42 c-23 23 -48 42 -53 42 -6 0 -19 9 -30
21 -10 11 -28 25 -39 31 -26 12 101 -106 138 -129 32 -20 31 -33 -6 -51 -23
-11 -33 -10 -73 7 -26 12 -53 21 -61 21 -14 0 -36 -46 -30 -64 4 -12 -78 -35
-128 -36 -22 0 -26 -3 -15 -9 9 -5 43 -4 82 4 l68 13 25 -57 c16 -33 24 -65
20 -78 -3 -13 -1 -23 5 -23 16 0 12 45 -10 102 -11 29 -20 54 -20 56 0 1 10 7
23 12 21 8 21 9 -5 9 -23 1 -28 6 -28 25 0 34 14 40 50 21 27 -14 30 -18 18
-32 -12 -15 -11 -15 10 -4 22 12 23 11 12 -8 -14 -28 -6 -39 23 -34 21 4 24
-1 35 -47 24 -105 21 -114 -60 -167 -40 -25 -93 -55 -118 -67 -27 -12 -39 -21
-29 -23 16 -4 104 43 188 100 l44 30 -7 61 c-3 33 -8 73 -12 89 -5 21 -3 27
10 27 9 0 16 4 16 10 0 5 13 7 31 3 31 -6 31 -6 24 28 -4 19 -7 36 -8 39 0 3
5 25 12 48 10 37 16 43 32 38 66 -21 65 -21 50 -2 -19 23 -9 29 54 31 30 1 58
5 61 8 10 9 -45 207 -72 259 -13 26 -24 58 -24 72 0 14 -5 28 -11 32 -16 9 -3
-45 27 -112 13 -29 34 -96 48 -149 22 -87 22 -95 7 -95 -10 0 -25 6 -35 13
-15 11 -16 15 -2 48 19 46 7 97 -34 142 -23 25 -32 29 -39 18 -6 -9 -16 2 -34
43 -25 53 -57 107 -57 95z m110 -355 c0 -2 -12 -4 -26 -4 -14 0 -23 4 -20 9 6
8 46 4 46 -5z m-100 -153 c0 -5 3 -16 6 -25 7 -18 -4 -20 -25 -7 -8 5 -11 16
-8 25 7 17 27 22 27 7z"/>
<path d="M5420 5008 c-52 -5 -120 -17 -150 -28 -30 -10 -68 -21 -85 -23 l-30
-4 31 -2 c17 0 55 7 85 18 30 10 100 21 157 25 l103 8 -16 -31 c-18 -37 -20
-37 -64 -10 -25 15 -45 20 -73 16 -44 -6 -101 -44 -94 -63 3 -8 -15 -19 -57
-34 -62 -20 -101 -40 -82 -40 6 0 33 8 60 19 82 30 102 33 109 15 4 -10 -1
-22 -11 -31 -16 -13 -16 -13 5 -3 14 7 36 8 55 4 36 -9 32 -9 72 0 l30 7 -25
-20 c-24 -20 -24 -20 -2 -14 15 4 22 1 22 -9 0 -20 42 -58 75 -66 l28 -8 -51
-33 c-29 -18 -52 -37 -52 -41 0 -4 -18 -20 -41 -34 -22 -15 -39 -30 -36 -32 5
-5 40 19 151 102 38 28 50 33 57 23 17 -27 9 -65 -21 -99 -37 -44 -37 -67 -1
-88 28 -16 30 -20 24 -62 -3 -25 -10 -53 -14 -62 -15 -28 -10 -45 6 -24 8 10
17 45 21 77 5 47 10 58 28 63 35 9 106 7 128 -5 16 -9 19 -8 16 3 -3 9 -28 14
-81 16 -76 3 -77 3 -78 30 -1 21 -2 22 -6 7 -3 -11 -9 -24 -13 -28 -11 -12
-50 1 -50 16 1 19 50 75 50 57 0 -12 2 -12 9 -2 6 11 11 10 25 -3 15 -15 17
-14 27 12 16 41 17 56 8 75 -6 10 -5 19 1 23 5 3 10 15 10 26 0 15 -7 19 -35
19 -39 0 -84 19 -105 45 -11 13 -9 20 11 42 l24 26 -22 -6 c-21 -5 -23 -1 -24
31 -2 45 -2 42 6 73 9 35 0 37 -115 27z m80 -82 c0 -3 -4 -8 -10 -11 -5 -3
-10 -1 -10 4 0 6 5 11 10 11 6 0 10 -2 10 -4z m-4 -73 c-11 -11 -17 4 -9 23 7
18 8 18 11 1 2 -10 1 -21 -2 -24z m174 -103 c0 -13 -23 -28 -36 -23 -25 9 -16
33 11 31 14 -1 25 -5 25 -8z"/>
<path d="M12210 4839 c-19 -11 -26 -17 -15 -13 11 3 28 9 38 11 9 3 17 9 17
14 0 11 1 12 -40 -12z"/>
<path d="M5365 4785 c-22 -13 -36 -25 -31 -25 10 0 76 39 76 46 0 7 -3 5 -45
-21z"/>
<path d="M684 4772 c8 -13 66 -56 66 -49 0 3 -17 17 -37 33 -20 15 -33 23 -29
16z"/>
<path d="M5700 4660 c8 -5 29 -10 45 -10 17 0 46 -8 64 -18 32 -16 36 -23 52
-97 10 -44 18 -101 18 -127 1 -29 6 -48 12 -48 22 0 -18 238 -45 267 -11 12
-117 43 -146 43 -13 0 -13 -1 0 -10z"/>
<path d="M325 4488 c-99 -93 -109 -107 -96 -140 9 -22 10 -21 10 8 1 25 15 44
74 101 39 38 82 75 95 82 22 12 30 31 13 31 -5 0 -48 -37 -96 -82z"/>
<path d="M12187 4477 c-3 -12 -7 -71 -8 -132 l-2 -110 44 -27 c24 -15 58 -32
76 -38 25 -9 31 -16 29 -34 -1 -13 -10 -31 -19 -41 -21 -21 -15 -32 22 -40 19
-4 39 -21 57 -47 30 -43 32 -40 -23 -75 -17 -11 -17 -12 5 -12 l22 -1 -20 -39
c-11 -22 -27 -44 -36 -49 -9 -5 -15 -15 -13 -21 5 -15 194 -96 246 -106 20 -4
50 -13 65 -21 15 -8 33 -14 40 -14 23 1 -45 33 -102 47 -30 8 -85 28 -121 43
-36 16 -78 34 -93 40 l-28 10 25 20 c34 27 38 25 69 -19 17 -25 40 -43 63 -51
42 -14 105 -5 105 15 0 11 8 11 53 -1 28 -7 63 -13 77 -13 14 0 -8 9 -48 20
-86 22 -92 25 -92 48 0 25 -49 68 -90 79 l-35 10 30 2 c18 1 23 4 13 7 -11 3
-18 14 -18 29 0 32 -16 64 -43 85 -20 16 -20 17 -1 22 10 3 36 8 56 12 21 3
40 10 43 15 8 12 -36 13 -67 1 -60 -22 -78 -22 -78 -2 0 34 11 50 61 86 27 19
49 39 49 44 0 4 -11 19 -25 33 -24 25 -24 25 -8 69 9 24 25 56 36 72 10 15 14
27 8 27 -15 0 -38 -37 -58 -92 l-17 -49 -51 6 c-27 4 -63 16 -78 27 -28 19
-45 19 -33 -1 6 -9 42 -21 135 -47 9 -3 11 -13 7 -32 l-6 -27 15 28 c13 22 19
25 34 17 33 -17 32 -37 -2 -59 -30 -19 -33 -19 -39 -3 -4 9 -7 11 -7 5 -1 -18
-21 -16 -21 2 0 22 -16 18 -34 -9 l-16 -25 -47 21 c-27 11 -60 29 -75 40 -27
18 -28 23 -28 101 1 45 5 101 9 125 9 44 -2 70 -12 29z m173 -404 c0 -10 -6
-12 -22 -7 -31 9 -35 14 -19 24 18 11 41 2 41 -17z m80 -152 c0 -5 -7 -11 -14
-14 -10 -4 -13 -1 -9 9 6 15 23 19 23 5z"/>
<path d="M350 4361 c0 -10 16 -42 35 -70 19 -28 35 -52 35 -55 0 -2 -16 -16
-36 -31 -31 -23 -35 -25 -32 -9 1 11 -1 20 -5 22 -17 8 -69 -11 -80 -29 -6
-10 -19 -19 -29 -19 -27 0 -30 -16 -10 -52 11 -19 18 -52 18 -78 -1 -45 -1
-45 -33 -42 -32 3 -45 -11 -20 -22 16 -6 -48 -64 -76 -68 -11 -2 -22 -8 -24
-15 -5 -15 123 -157 172 -190 22 -14 55 -40 73 -56 17 -17 32 -26 32 -21 0 13
-33 43 -91 82 -57 38 -175 170 -163 181 5 5 27 11 49 14 22 3 34 3 28 0 -23
-9 -15 -79 13 -112 29 -35 101 -62 113 -43 4 7 27 -2 69 -30 34 -22 65 -39 68
-36 3 3 -17 19 -43 36 -74 48 -86 59 -79 77 4 11 13 14 28 10 19 -5 18 -3 -4
10 -16 9 -28 22 -28 30 0 8 -14 30 -31 50 -33 37 -32 42 4 24 20 -9 20 -9 5 4
-17 13 -17 16 -2 46 15 30 14 53 -2 95 -5 14 0 13 41 -4 26 -11 56 -20 68 -20
20 1 21 2 5 14 -9 7 -42 19 -73 26 -30 7 -55 19 -55 25 0 27 36 44 100 47 l65
3 1 38 c0 36 4 41 48 63 26 13 56 24 67 24 10 0 19 5 19 10 0 16 -22 12 -87
-19 l-62 -29 -35 45 c-20 26 -36 57 -36 70 0 12 -4 23 -10 23 -5 0 -10 -8 -10
-19z m98 -174 c3 -24 0 -27 -25 -27 -54 0 -62 23 -18 48 28 16 39 10 43 -21z
m-185 -41 c12 -30 -17 -35 -33 -6 -9 17 -8 20 9 20 10 0 21 -6 24 -14z m-23
-206 c-20 -13 -33 -13 -25 0 3 6 14 10 23 10 15 0 15 -2 2 -10z"/>
<path d="M240 4311 c0 -15 40 -94 45 -89 3 2 -7 26 -20 53 -14 26 -25 43 -25
36z"/>
<path d="M6850 4237 c0 -7 18 -44 41 -81 33 -56 109 -223 109 -242 0 -3 -15
-4 -32 -2 -36 3 -43 23 -24 65 19 45 -57 153 -97 137 -9 -3 -26 13 -46 45 -30
47 -77 97 -56 61 4 -8 18 -28 30 -45 12 -16 29 -44 38 -61 14 -27 14 -34 3
-43 -10 -8 -16 -9 -21 -1 -3 5 -12 10 -18 10 -7 0 -2 -8 11 -18 19 -14 22 -24
16 -46 -5 -20 -1 -35 14 -56 20 -27 20 -28 2 -33 -30 -8 -62 -67 -56 -105 5
-36 3 -36 -55 10 -20 15 -42 28 -48 28 -7 0 -28 11 -48 25 -20 13 -39 22 -42
18 -3 -3 -1 -7 4 -9 6 -2 22 -12 36 -22 14 -9 56 -37 94 -61 l68 -45 -28 -22
c-26 -21 -28 -21 -87 -5 -66 17 -78 12 -78 -41 0 -22 -7 -28 -47 -42 -26 -9
-59 -16 -75 -16 -15 0 -28 -4 -28 -10 0 -15 31 -12 99 9 l61 19 30 -53 c16
-29 30 -62 30 -74 0 -11 5 -21 10 -21 16 0 12 16 -20 87 -35 77 -34 73 -16 73
8 0 17 4 21 9 3 6 -7 9 -22 8 -29 -2 -40 17 -24 42 7 11 15 11 45 1 32 -10 35
-14 24 -28 -12 -14 -10 -14 12 -2 l24 13 -17 -26 c-12 -18 -13 -27 -4 -30 19
-6 89 10 97 22 3 7 13 9 21 6 29 -10 41 9 26 46 -10 25 -11 46 -5 77 l9 44 42
-7 c38 -6 40 -5 23 7 -18 14 -16 16 20 30 22 9 52 14 67 11 22 -4 27 -2 27 16
0 32 -74 203 -109 251 -17 24 -31 51 -31 61 0 10 -4 21 -10 24 -5 3 -10 0 -10
-8z m30 -337 c0 -5 -7 -10 -15 -10 -8 0 -15 5 -15 10 0 6 7 10 15 10 8 0 15
-4 15 -10z m-66 -176 c8 -22 8 -24 -8 -24 -15 0 -28 24 -19 34 11 10 21 7 27
-10z"/>
<path d="M5825 4231 c-16 -4 -45 -6 -62 -3 -22 3 -33 1 -33 -8 0 -9 13 -11 48
-6 99 13 199 17 261 9 l64 -8 -25 -29 -25 -30 -29 27 c-23 22 -39 27 -77 27
-55 0 -111 -24 -103 -45 3 -10 -13 -16 -62 -25 -37 -6 -74 -16 -82 -21 -11 -7
-6 -8 18 -4 106 21 143 22 152 4 6 -9 7 -19 2 -22 -4 -2 -1 -2 7 0 8 2 25 -4
39 -13 16 -11 36 -14 59 -11 49 8 32 -7 -37 -33 -33 -12 -63 -26 -66 -31 -5
-9 9 -4 78 25 21 9 40 16 43 16 2 0 11 -16 20 -36 10 -23 25 -40 45 -47 16 -6
30 -14 30 -18 0 -3 -20 -14 -45 -23 -25 -10 -48 -23 -52 -31 -5 -7 -28 -22
-51 -34 -24 -12 -42 -24 -40 -26 4 -5 174 80 195 97 18 14 33 0 33 -31 0 -17
-11 -38 -31 -57 -47 -44 -54 -62 -33 -85 9 -10 23 -19 31 -19 7 0 13 -3 13 -7
-2 -20 -27 -101 -39 -121 -7 -13 -10 -26 -8 -29 9 -9 35 41 48 95 l13 52 67 0
c37 0 71 -4 74 -10 8 -13 25 -13 25 0 0 13 -66 30 -117 30 -38 0 -43 3 -44 23
l0 22 -9 -22 c-11 -28 -22 -29 -43 -5 -16 17 -15 20 12 46 21 20 30 24 34 14
3 -8 6 -5 7 7 1 19 2 19 20 -3 l19 -23 17 33 c9 18 17 45 16 60 0 15 4 30 9
33 21 13 7 33 -27 38 -41 7 -104 51 -104 72 0 8 9 20 20 27 26 17 26 31 -1 23
-20 -7 -21 -5 -15 31 4 22 12 52 18 67 6 15 8 31 4 34 -10 10 -245 13 -281 4z
m228 -141 c-3 -11 -9 -17 -15 -14 -5 3 -4 12 3 20 16 19 18 18 12 -6z m147
-145 c-7 -8 -19 -15 -26 -15 -8 0 -14 7 -14 15 0 10 10 15 26 15 22 0 25 -2
14 -15z"/>
<path d="M12580 4114 l-35 -14 35 6 c19 3 39 10 45 15 13 13 -3 10 -45 -7z"/>
<path d="M469 4025 c18 -8 38 -15 45 -14 15 1 -46 28 -64 28 -8 0 0 -6 19 -14z"/>
<path d="M6755 3977 c28 -25 52 -44 54 -42 4 5 -66 67 -88 78 -9 5 7 -12 34
-36z"/>
<path d="M12568 3933 c12 -2 30 -2 40 0 9 3 -1 5 -23 4 -22 0 -30 -2 -17 -4z"/>
<path d="M341 3905 c9 -8 79 -35 79 -30 0 2 -16 12 -36 20 -37 15 -51 19 -43
10z"/>
<path d="M6274 3846 c38 -13 75 -31 82 -40 10 -14 30 -212 24 -241 -4 -19 0
-30 8 -18 10 15 -5 238 -17 261 -9 17 -121 63 -151 61 -8 0 16 -11 54 -23z"/>
<path d="M6755 3609 c8 -23 15 -60 14 -83 0 -45 -11 -55 -154 -150 -33 -22
-64 -46 -68 -53 -10 -17 -37 -17 -37 0 0 8 -12 19 -27 26 l-27 12 30 25 c17
14 22 21 10 18 -17 -7 -17 -5 -1 25 9 18 23 35 31 38 22 8 17 23 -8 22 -13 0
-17 -3 -10 -6 10 -4 9 -9 -4 -24 -21 -23 -33 -24 -70 -4 -16 8 -42 14 -59 14
-29 -1 -30 -1 -5 -9 18 -6 20 -8 7 -9 -21 -1 -79 -30 -88 -43 -3 -5 -19 -13
-35 -18 -27 -9 -27 -10 8 -5 23 4 38 1 40 -6 2 -7 23 -12 51 -12 43 1 47 -1
47 -23 0 -17 7 -25 28 -31 l27 -6 -34 -14 c-18 -8 -31 -17 -28 -20 4 -3 23 4
43 16 42 25 46 24 37 -8 -3 -14 -11 -20 -20 -17 -8 3 -11 1 -8 -4 3 -6 13 -10
21 -10 8 0 14 -4 14 -9 0 -17 -41 -19 -77 -5 -19 8 -32 10 -28 5 3 -6 13 -11
21 -11 8 0 12 -4 9 -10 -3 -5 1 -10 10 -10 9 0 14 -4 11 -9 -7 -11 17 -21 53
-21 34 0 44 9 30 27 -7 8 -8 13 -1 13 14 0 33 -25 25 -33 -3 -4 2 -7 12 -7 17
0 17 1 -2 23 -22 24 -36 67 -22 67 5 0 14 11 19 25 5 14 18 29 27 32 25 9 108
68 170 120 49 41 51 46 46 81 -8 60 -23 111 -33 117 -5 3 -3 -13 5 -36z"/>
<path d="M110 3598 c-17 -23 -49 -76 -72 -117 l-41 -74 18 -31 c28 -47 75
-106 87 -106 5 0 -8 21 -31 46 -59 67 -60 88 -11 175 22 39 52 85 65 101 23
27 32 48 20 48 -3 0 -19 -19 -35 -42z"/>
<path d="M12416 3501 c-20 -60 -36 -116 -36 -125 0 -18 92 -116 109 -116 5 0
-16 24 -46 53 l-55 53 22 70 c12 38 30 88 41 112 21 47 23 62 10 62 -5 0 -25
-49 -45 -109z"/>
<path d="M6443 3473 c9 -2 23 -2 30 0 6 3 -1 5 -18 5 -16 0 -22 -2 -12 -5z"/>
<path d="M12713 3434 c-16 -16 -40 -44 -54 -62 l-26 -34 -53 27 c-30 15 -62
37 -71 49 -14 16 -18 17 -19 5 0 -12 41 -44 118 -88 10 -6 7 -18 -13 -52 -23
-41 -25 -42 -25 -16 0 15 -3 27 -6 27 -13 0 -74 -53 -74 -65 0 -7 -12 -20 -26
-30 l-26 -17 30 -21 c16 -12 36 -40 45 -64 15 -41 15 -43 -3 -53 -10 -5 -27
-10 -37 -10 -17 -1 -17 -2 1 -15 19 -15 19 -15 -5 -41 -13 -14 -34 -30 -46
-35 -13 -5 -23 -14 -22 -21 0 -15 147 -135 198 -162 20 -10 51 -32 69 -47 18
-16 36 -29 39 -29 15 0 -44 52 -86 77 -68 39 -211 157 -202 166 13 13 65 13
67 0 1 -7 2 -20 3 -29 2 -31 64 -81 110 -89 28 -5 46 -3 50 4 5 7 30 -1 75
-25 37 -20 70 -34 72 -31 3 3 -28 22 -68 44 -72 39 -94 67 -66 84 9 6 9 9 1 9
-7 0 -20 14 -28 30 -9 17 -27 36 -40 42 -31 14 -33 32 -2 23 15 -4 18 -3 8 3
-9 6 -11 19 -7 38 4 19 0 42 -13 67 l-20 39 59 -4 c34 -2 61 1 62 7 2 6 -27
11 -69 13 -40 2 -73 7 -73 13 0 26 34 58 75 69 62 17 74 34 52 72 -16 29 -16
30 10 66 14 20 38 47 52 59 14 12 22 25 19 29 -4 3 -20 -6 -35 -22z m-46 -168
c-4 -11 -66 -30 -74 -22 -3 3 5 22 18 42 l22 37 19 -23 c10 -13 17 -28 15 -34z
m-162 -86 c12 -19 -5 -30 -25 -17 -11 6 -20 15 -20 19 0 12 38 10 45 -2z m30
-190 c-3 -5 -11 -10 -16 -10 -6 0 -7 5 -4 10 3 6 11 10 16 10 6 0 7 -4 4 -10z"/>
<path d="M120 3431 c0 -5 25 -32 55 -60 l56 -50 -18 -28 -17 -28 27 24 c28 26
43 22 49 -13 2 -15 -5 -22 -31 -30 -26 -7 -36 -7 -39 2 -2 7 -8 10 -13 6 -5
-3 -9 4 -9 15 0 12 -5 21 -12 21 -18 0 -78 -50 -78 -66 0 -7 -6 -14 -14 -14
-27 0 -28 -21 -3 -48 29 -32 53 -93 44 -116 -4 -9 -18 -16 -32 -16 -14 0 -25
-4 -25 -10 0 -5 7 -10 15 -10 8 0 15 -3 15 -6 0 -17 -43 -74 -60 -79 -39 -13
-21 -40 63 -92 45 -29 108 -61 138 -72 31 -10 71 -27 90 -36 28 -14 31 -14 19
-2 -8 9 -50 29 -94 46 -73 28 -226 118 -226 133 0 4 16 12 35 19 19 7 35 17
35 21 0 4 5 8 11 8 8 0 7 -5 -1 -15 -18 -21 12 -86 50 -108 31 -19 116 -23
122 -6 2 7 25 4 67 -10 71 -23 85 -25 77 -12 -3 4 -20 11 -38 15 -91 18 -152
66 -100 79 14 4 14 5 -3 6 -11 1 -28 14 -37 31 -9 16 -28 32 -42 36 -35 8 -33
24 2 20 15 -2 19 -1 8 1 -15 4 -17 11 -13 38 4 22 -1 46 -12 69 l-18 35 103
-2 c57 0 106 2 110 5 3 3 -49 9 -115 13 -67 4 -121 12 -121 17 0 26 35 58 68
63 80 13 100 37 68 80 -12 17 -9 22 31 57 24 21 50 38 58 38 8 0 17 5 20 10 3
6 -2 10 -12 10 -10 0 -42 -20 -70 -45 l-52 -46 -50 36 c-28 20 -53 45 -56 56
-6 19 -25 27 -25 10z m-14 -242 c3 -6 1 -16 -4 -21 -13 -13 -45 8 -36 23 7 12
31 11 40 -2z m34 -198 c0 -5 -7 -11 -14 -14 -10 -4 -13 -1 -9 9 6 15 23 19 23
5z"/>
<path d="M6228 3433 c6 -2 18 -2 25 0 6 3 1 5 -13 5 -14 0 -19 -2 -12 -5z"/>
<path d="M6326 3251 c-4 -5 -3 -17 1 -26 5 -16 0 -17 -56 -13 -33 2 -56 1 -49
-4 7 -4 38 -8 69 -8 54 0 58 -2 98 -45 22 -24 41 -48 41 -53 0 -5 -15 -7 -32
-5 -32 3 -32 3 -8 -8 14 -6 52 -9 88 -6 46 3 62 1 62 -8 0 -7 -12 -18 -27 -23
-16 -6 -53 -20 -83 -31 -30 -12 -63 -21 -72 -21 -10 0 -18 -5 -18 -11 0 -5 4
-8 8 -5 5 3 43 7 84 10 62 4 78 2 82 -11 3 -8 3 -19 0 -25 -4 -6 -1 -8 7 -6 8
3 27 -4 42 -15 20 -13 37 -17 58 -13 31 6 41 -9 12 -17 -14 -4 -14 -5 -3 -6 9
0 20 -16 25 -33 7 -22 20 -38 42 -48 18 -8 33 -18 33 -21 0 -3 -22 -16 -49
-29 -28 -13 -52 -29 -55 -36 -6 -17 27 -5 88 31 48 28 56 25 56 -18 0 -21 -12
-43 -42 -75 l-42 -45 32 -27 c30 -25 32 -29 26 -76 -4 -27 -13 -59 -20 -71 -8
-13 -10 -23 -5 -23 15 0 27 28 41 93 l12 59 66 -4 c37 -2 76 -8 87 -12 18 -8
19 -7 5 7 -10 11 -41 19 -86 23 -69 6 -71 7 -67 33 l3 26 -11 -27 c-11 -30
-28 -35 -47 -16 -19 19 -14 36 14 54 22 15 27 15 36 3 7 -10 8 -8 4 11 l-5 25
20 -24 c11 -13 21 -22 22 -20 17 26 35 82 31 94 -4 8 -1 22 6 30 16 20 4 35
-28 35 -16 0 -43 14 -67 34 l-40 34 23 24 c26 28 28 40 7 32 -21 -8 -20 54 1
84 27 39 13 48 -98 61 -56 7 -109 18 -117 24 -10 8 -13 9 -8 1 4 -7 -5 -14
-24 -18 -45 -9 -59 -8 -59 5 0 7 -16 32 -36 55 -19 24 -32 44 -27 44 4 0 -3 6
-17 13 -14 7 -24 21 -24 30 2 19 -2 22 -10 8z m334 -176 c92 -9 94 -10 74 -40
-21 -32 -29 -31 -71 5 -25 23 -44 30 -73 30 -23 0 -40 5 -40 11 0 7 9 9 23 6
12 -3 51 -9 87 -12z m-165 -55 c3 -6 -4 -10 -17 -10 -18 0 -20 2 -8 10 19 12
18 12 25 0z m201 -86 c-4 -9 -9 -15 -11 -12 -3 3 -3 13 1 22 4 9 9 15 11 12 3
-3 3 -13 -1 -22z m154 -133 c0 -9 -24 -21 -41 -21 -5 0 -9 7 -9 15 0 9 9 15
25 15 14 0 25 -4 25 -9z"/>
<path d="M12718 3133 c12 -2 32 -2 45 0 12 2 2 4 -23 4 -25 0 -35 -2 -22 -4z"/>
<path d="M6190 3081 c0 -5 16 -31 35 -57 31 -43 135 -242 135 -259 0 -4 -15
-5 -32 -3 -33 3 -33 3 -30 52 2 27 -2 62 -9 78 -14 35 -78 81 -93 69 -7 -6
-26 11 -51 45 -22 29 -46 56 -53 59 -8 3 1 -13 20 -36 52 -64 71 -100 59 -112
-19 -19 -13 -92 10 -121 23 -30 16 -34 -15 -8 -18 15 -19 15 -8 0 11 -14 10
-20 -7 -37 -24 -24 -36 -63 -28 -91 7 -27 3 -26 -50 15 -25 19 -51 35 -58 35
-7 0 -24 10 -39 21 -15 12 -29 19 -31 17 -5 -5 60 -53 139 -104 l48 -31 -30
-21 c-28 -21 -32 -21 -72 -7 -23 8 -51 15 -61 15 -20 0 -41 -32 -37 -56 2 -12
-11 -20 -51 -30 -30 -8 -62 -12 -72 -9 -9 3 -21 0 -25 -6 -7 -12 60 -9 131 6
28 6 32 4 57 -48 16 -32 24 -64 21 -76 -3 -12 -1 -21 6 -21 17 0 13 35 -12 98
l-23 57 43 21 c24 12 43 17 43 13 0 -4 -5 -11 -11 -14 -5 -4 -8 -12 -6 -18 5
-15 77 -10 96 6 8 7 25 10 39 8 23 -3 24 -1 17 31 -10 43 -8 94 6 119 10 20
16 20 69 1 12 -4 11 -1 -3 15 -17 19 -16 20 23 36 22 8 49 13 60 10 13 -3 22
1 26 11 8 21 -61 178 -103 233 -17 23 -39 55 -48 72 -15 31 -25 39 -25 22z
m47 -337 c-3 -3 -12 -4 -19 -1 -8 3 -5 6 6 6 11 1 17 -2 13 -5z m-231 -164
c24 -9 25 -13 13 -25 -8 -7 -26 -17 -41 -20 -26 -7 -28 -5 -28 24 0 34 11 38
56 21z m164 1 c0 -5 3 -16 6 -25 7 -18 -4 -20 -25 -7 -8 5 -11 16 -8 25 7 17
27 22 27 7z"/>
<path d="M273 2973 c9 -2 25 -2 35 0 9 3 1 5 -18 5 -19 0 -27 -2 -17 -5z"/>
<path d="M12655 2970 c17 -4 39 -8 50 -8 16 0 15 2 -5 8 -14 4 -36 8 -50 8
-22 0 -22 -1 5 -8z"/>
<path d="M6120 2926 c0 -2 8 -10 18 -17 15 -13 16 -12 3 4 -13 16 -21 21 -21
13z"/>
<path d="M6535 2875 c-16 -8 -23 -14 -15 -14 8 0 26 6 40 14 32 18 15 18 -25
0z"/>
<path d="M6070 2857 c0 -2 15 -14 33 -27 l32 -23 -24 26 c-21 23 -41 35 -41
24z"/>
<path d="M6573 2708 c-13 -6 -23 -15 -23 -20 0 -5 14 -2 30 7 45 23 38 35 -7
13z"/>
<path d="M6895 2704 c28 -8 64 -21 81 -29 34 -15 36 -21 51 -197 3 -38 9 -68
14 -68 13 0 10 64 -9 169 l-17 93 -45 18 c-25 9 -63 20 -85 23 -37 5 -36 5 10
-9z"/>
<path d="M12427 2628 c-24 -35 -56 -82 -71 -105 l-27 -41 24 -49 c14 -26 35
-59 47 -73 l22 -25 -16 25 c-9 14 -28 47 -41 75 -24 48 -24 50 -6 70 10 11 35
45 54 75 19 30 44 64 56 74 22 20 27 36 12 36 -6 0 -30 -28 -54 -62z"/>
<path d="M110 2645 c-16 -43 -39 -128 -50 -184 -10 -52 -9 -56 17 -84 32 -34
102 -81 110 -73 3 2 -9 12 -26 20 -17 9 -46 32 -65 50 l-34 34 23 94 c12 51
29 107 38 125 20 37 21 43 7 43 -6 0 -15 -11 -20 -25z"/>
<path d="M350 2461 l-40 -60 -47 16 c-27 8 -58 26 -70 39 -25 28 -33 30 -33
10 0 -9 30 -29 68 -47 37 -17 68 -33 70 -34 1 -1 -6 -22 -17 -46 -16 -36 -27
-40 -22 -6 0 4 -5 7 -12 7 -15 0 -57 -60 -57 -82 0 -9 -7 -18 -15 -22 -26 -9
-17 -36 18 -52 32 -16 77 -69 77 -92 0 -7 -11 -18 -25 -24 -27 -12 -34 -31
-11 -26 8 2 15 0 16 -5 4 -20 -13 -67 -31 -83 -20 -18 -25 -39 -11 -47 4 -3
50 -16 102 -30 84 -22 290 -44 275 -29 -3 3 -47 9 -98 12 -100 7 -267 48 -267
66 0 6 9 19 19 28 19 17 21 17 60 -23 35 -36 46 -41 85 -41 52 0 100 16 91 30
-4 6 19 10 62 10 37 0 74 4 82 9 10 6 -15 9 -69 8 -78 -2 -95 4 -90 28 2 13
-58 53 -90 60 -28 6 -31 9 -16 15 17 6 18 7 3 13 -11 4 -17 17 -17 35 0 20
-10 40 -30 59 l-31 30 60 12 c33 7 63 16 66 21 9 14 -18 12 -87 -6 -33 -8 -62
-13 -64 -11 -2 2 -1 18 2 34 5 24 17 37 55 57 26 15 51 32 55 37 3 6 -3 24
-15 40 l-22 30 22 37 c12 20 33 47 48 59 20 18 22 23 9 23 -10 0 -35 -26 -58
-59z m-5 -101 c21 -23 21 -22 -22 -44 -32 -16 -33 -16 -33 4 0 21 20 60 31 60
3 0 14 -9 24 -20z m-128 -145 c3 -9 3 -18 0 -21 -9 -9 -48 16 -42 27 9 14 35
11 42 -6z m83 -180 c-7 -9 -15 -13 -17 -11 -7 7 7 26 19 26 6 0 6 -6 -2 -15z"/>
<path d="M12450 2491 c0 -5 23 -35 51 -65 l51 -56 -37 -38 -37 -37 5 28 c4 27
3 28 -22 22 -33 -8 -71 -32 -71 -45 0 -6 -8 -10 -18 -10 -30 0 -33 -11 -12
-40 11 -15 21 -47 22 -71 l3 -44 -39 -3 c-33 -3 -36 -5 -21 -16 16 -11 14 -15
-19 -34 -21 -12 -46 -22 -56 -22 -10 0 -21 -4 -25 -9 -7 -12 103 -181 155
-237 21 -22 41 -51 45 -63 3 -11 11 -21 16 -21 15 0 -14 50 -58 100 -43 49
-143 197 -143 211 0 5 21 8 46 7 29 -1 40 -4 31 -9 -19 -11 -15 -78 8 -113 22
-34 88 -69 102 -55 7 7 24 -6 52 -38 24 -26 50 -52 59 -57 10 -6 -9 19 -40 54
-32 35 -58 69 -58 76 0 20 18 26 42 14 18 -9 17 -6 -4 10 -19 14 -28 31 -28
49 0 16 -10 37 -24 50 l-24 22 25 25 c22 22 25 32 21 75 -3 27 -4 49 -2 49 2
0 25 -9 52 -19 27 -11 54 -16 61 -12 13 9 -12 21 -86 42 -24 7 -43 18 -43 24
0 26 37 45 86 45 69 0 90 20 73 67 -7 18 -2 26 24 45 18 12 38 28 45 35 7 7
22 13 33 13 10 0 19 5 19 10 0 19 -27 10 -85 -31 l-58 -40 -43 42 c-24 24 -47
51 -50 61 -6 19 -24 25 -24 9z m130 -167 c0 -29 -19 -39 -58 -29 l-27 7 33 29
c36 33 52 31 52 -7z m-185 -54 c11 -17 -5 -32 -21 -19 -8 6 -14 15 -14 20 0
12 27 11 35 -1z m-15 -190 c0 -5 -10 -10 -22 -10 -19 0 -20 2 -8 10 19 13 30
13 30 0z"/>
<path d="M6105 2470 c3 -14 8 -50 11 -80 l5 -55 -83 -51 c-46 -28 -98 -57
-115 -64 -28 -10 -45 -30 -28 -30 15 0 117 57 173 97 61 44 62 44 61 91 0 26
-7 63 -15 82 -9 21 -12 25 -9 10z"/>
<path d="M5704 2276 c3 -14 20 -49 37 -77 26 -42 89 -213 89 -243 0 -9 -50 1
-63 13 -4 4 -1 25 6 46 18 51 5 93 -40 137 -26 25 -36 30 -42 19 -6 -9 -17 3
-40 42 -17 30 -39 61 -48 68 -15 12 -15 10 2 -16 55 -86 67 -115 55 -131 -11
-13 -15 -12 -34 3 -21 18 -21 18 0 -7 16 -18 20 -34 17 -58 -3 -20 1 -41 11
-57 26 -39 6 -29 -54 28 l-55 52 50 -53 50 -53 -21 -17 c-28 -22 -44 -54 -44
-88 l0 -28 -43 42 c-23 23 -47 42 -53 42 -6 0 -23 14 -39 30 -16 17 -33 30
-37 30 -11 0 102 -106 143 -135 37 -26 36 -33 -3 -50 -29 -12 -37 -11 -71 7
-21 10 -43 18 -49 16 -7 -3 3 -10 20 -17 38 -16 41 -28 8 -37 -53 -13 -68 2
-51 51 7 20 6 20 -9 1 -9 -11 -16 -30 -16 -42 0 -19 -6 -22 -50 -26 -28 -1
-62 0 -75 4 -14 3 -27 2 -30 -2 -9 -15 36 -22 99 -15 l62 6 18 -56 c10 -32 15
-68 12 -81 -4 -14 -2 -24 4 -24 15 0 12 71 -4 118 l-15 41 32 10 c18 5 41 12
52 17 19 7 19 7 3 -13 -25 -27 -23 -33 11 -33 24 0 29 -5 35 -31 8 -40 8 -113
0 -133 -7 -19 -159 -92 -210 -102 -32 -6 -48 -24 -22 -24 20 0 138 48 193 78
l50 27 -1 92 c-1 100 4 107 68 103 25 -1 26 0 18 34 -5 23 -3 49 4 71 17 49
29 59 54 46 31 -17 47 -14 32 4 -18 22 -10 26 59 32 47 5 61 9 61 22 0 36 -59
199 -88 245 -18 28 -32 58 -32 67 0 10 -5 21 -11 25 -9 5 -10 -1 -5 -20z m9
-323 c-7 -2 -21 -2 -30 0 -10 3 -4 5 12 5 17 0 24 -2 18 -5z m-93 -174 c0 -20
-15 -26 -25 -9 -9 15 3 43 15 35 5 -3 10 -15 10 -26z"/>
<path d="M7008 2284 c-4 -3 -37 -9 -75 -14 l-68 -8 65 4 c218 13 320 15 320 8
0 -5 -9 -20 -19 -33 l-18 -24 -35 21 c-45 28 -112 29 -155 2 -19 -11 -30 -25
-28 -33 4 -9 -13 -16 -61 -24 -37 -7 -72 -17 -78 -24 -8 -9 -7 -10 7 -6 10 4
47 12 82 18 52 10 67 10 80 -1 15 -13 14 -15 -7 -33 l-23 -19 25 15 c23 13 29
13 54 0 18 -9 42 -13 62 -10 41 7 43 2 7 -18 l-28 -15 28 6 c20 5 27 2 27 -8
0 -21 42 -58 76 -67 l29 -7 -48 -28 c-51 -30 -91 -79 -45 -55 13 6 43 27 66
47 35 28 46 32 53 21 16 -26 9 -61 -22 -104 -36 -49 -33 -71 9 -87 27 -10 27
-12 21 -72 -3 -33 -7 -65 -10 -71 -2 -5 0 -12 6 -15 11 -5 24 54 24 112 1 30
5 39 24 43 29 8 109 11 122 5 6 -3 10 0 10 5 0 6 -31 9 -77 8 l-78 -1 0 26 c0
15 -3 38 -7 52 l-6 25 21 -23 c25 -29 34 -18 38 52 2 28 6 61 10 74 6 20 3 22
-33 22 -49 0 -108 36 -109 68 -1 12 2 19 6 17 4 -3 14 3 21 12 12 14 11 15
-10 8 -22 -7 -23 -6 -18 36 3 24 8 56 12 72 l7 27 -124 0 c-69 0 -127 -3 -130
-6z m205 -134 c-3 -12 -8 -19 -11 -16 -5 6 5 36 12 36 2 0 2 -9 -1 -20z m160
-117 c11 -10 -13 -32 -29 -26 -20 8 -17 33 4 33 10 0 22 -3 25 -7z m-53 -179
c0 -34 -10 -41 -44 -28 -22 8 -20 23 5 51 27 28 39 22 39 -23z"/>
<path d="M445 2240 l-20 -9 20 0 c11 0 27 4 35 9 13 9 13 10 0 9 -8 0 -24 -4
-35 -9z"/>
<path d="M12600 2156 c14 -9 32 -15 40 -15 13 0 13 1 0 8 -8 5 -26 12 -40 15
l-25 7 25 -15z"/>
<path d="M7073 2073 c-18 -9 -33 -20 -33 -24 0 -5 16 1 35 12 19 12 35 23 35
25 0 5 0 5 -37 -13z"/>
<path d="M448 2073 c6 -2 18 -2 25 0 6 3 1 5 -13 5 -14 0 -19 -2 -12 -5z"/>
<path d="M408 2063 c7 -3 16 -2 19 1 4 3 -2 6 -13 5 -11 0 -14 -3 -6 -6z"/>
<path d="M12420 2056 c0 -2 7 -7 16 -10 8 -3 12 -2 9 4 -6 10 -25 14 -25 6z"/>
<path d="M12460 2035 c0 -2 18 -14 40 -25 22 -11 40 -18 40 -15 0 2 -18 14
-40 25 -22 11 -40 18 -40 15z"/>
<path d="M7415 1943 c17 -2 54 -8 82 -14 51 -10 53 -12 63 -52 6 -23 17 -58
25 -77 7 -20 16 -57 20 -83 4 -26 12 -47 17 -47 14 0 3 54 -33 166 l-29 91
-51 11 c-28 7 -67 11 -87 11 -33 -2 -34 -2 -7 -6z"/>
<path d="M7113 1894 c-20 -18 -22 -22 -7 -15 21 10 52 41 41 41 -3 0 -19 -12
-34 -26z"/>
<path d="M12120 1739 c-77 -56 -95 -74 -97 -97 -2 -23 -1 -24 5 -5 4 12 45 49
92 82 126 89 127 90 110 90 -8 0 -58 -32 -110 -70z"/>
<path d="M383 1724 c-6 -17 2 -173 13 -236 6 -32 12 -39 53 -56 25 -11 64 -23
86 -26 37 -5 36 -5 -9 9 -28 7 -64 22 -82 31 -30 16 -32 21 -39 98 -4 45 -7
107 -6 139 2 56 -4 72 -16 41z"/>
<path d="M693 1675 c-6 -11 -19 -46 -28 -77 l-16 -58 -63 0 c-34 0 -67 5 -73
11 -6 6 -17 9 -25 7 -25 -9 35 -31 99 -36 61 -5 63 -5 58 -31 l-5 -26 12 28
c13 30 34 32 52 5 8 -13 5 -22 -13 -42 -22 -24 -25 -24 -37 -8 -12 15 -12 14
-7 -8 l6 -25 -21 23 -21 24 -16 -33 c-9 -17 -15 -43 -12 -57 3 -14 0 -34 -7
-44 -13 -22 4 -38 42 -38 27 0 102 -46 102 -62 0 -6 -10 -22 -22 -36 l-23 -24
29 8 29 7 -5 -54 c-3 -30 -7 -61 -9 -69 -8 -32 195 -19 264 17 18 9 52 22 77
29 34 9 38 12 19 13 -15 1 -52 -10 -82 -24 -49 -21 -177 -45 -245 -45 -20 0
-22 4 -17 23 12 39 23 42 70 18 37 -18 50 -20 79 -12 53 14 99 50 86 66 -8 10
3 18 50 35 32 12 65 29 72 38 9 11 2 10 -27 -5 -71 -36 -116 -47 -126 -32 -5
8 -2 21 9 34 17 20 17 20 -5 1 -20 -16 -26 -17 -53 -6 -28 12 -39 11 -85 -5
-14 -5 -12 1 10 20 22 20 24 24 8 16 -20 -10 -24 -8 -38 20 -10 18 -32 38 -55
48 l-38 17 49 27 c26 15 51 32 55 38 14 24 -6 17 -66 -22 -49 -31 -65 -37 -71
-27 -17 25 -9 51 31 101 38 47 39 51 24 69 -10 10 -23 18 -31 18 -18 0 -8 83
14 118 8 13 12 29 10 35 -2 7 -8 4 -14 -8z m-65 -357 c2 -12 -3 -14 -23 -10
-21 3 -23 7 -14 19 14 17 33 12 37 -9z m142 -127 c0 -6 -4 -13 -10 -16 -5 -3
-10 1 -10 9 0 9 5 16 10 16 6 0 10 -4 10 -9z"/>
<path d="M12140 1625 c0 -9 12 -43 26 -76 14 -34 24 -62 22 -64 -2 -1 -12 -7
-23 -14 -18 -11 -18 -12 7 -7 31 7 42 -5 33 -34 -7 -23 -23 -25 -59 -8 -22 9
-24 14 -13 26 11 13 9 14 -13 2 l-24 -13 17 27 c19 28 18 29 -43 26 -19 -1
-40 -6 -47 -12 -7 -5 -17 -7 -23 -3 -6 4 -17 4 -25 1 -10 -4 -11 -12 -4 -38 8
-24 7 -44 -3 -73 -14 -40 -24 -45 -62 -29 -16 6 -18 4 -13 -9 8 -21 -29 -32
-78 -24 -19 3 -37 2 -40 -3 -7 -12 31 -203 50 -253 8 -20 15 -53 15 -72 0 -18
5 -37 10 -40 15 -9 12 37 -6 86 -8 24 -25 95 -38 157 -20 104 -21 112 -5 112
10 0 25 -7 33 -16 14 -14 14 -18 0 -46 -20 -38 -14 -85 17 -134 15 -25 27 -34
40 -31 15 4 22 -7 39 -57 21 -62 40 -100 40 -80 0 6 -7 29 -16 50 -40 95 -35
155 10 117 20 -17 20 -17 6 1 -9 11 -15 41 -15 70 0 28 -5 60 -10 71 l-8 20
23 -20 c13 -11 20 -14 16 -7 -5 9 2 24 19 42 15 16 30 43 34 61 l7 33 41 -37
c22 -20 45 -37 50 -37 6 0 18 -9 29 -21 10 -11 28 -25 39 -31 24 -11 -86 92
-132 124 -37 26 -37 38 -3 55 18 9 31 8 63 -3 73 -26 97 -16 97 40 0 18 9 24
53 34 29 6 62 12 74 12 12 0 25 5 28 10 9 15 -44 12 -101 -5 -27 -8 -52 -15
-56 -15 -13 0 -58 98 -58 125 0 14 -4 25 -10 25 -5 0 -10 -7 -10 -15z m-126
-180 c2 -7 -1 -16 -9 -19 -12 -4 -25 13 -25 35 0 12 28 0 34 -16z m-87 -171
c-3 -3 -12 -4 -19 -1 -8 3 -5 6 6 6 11 1 17 -2 13 -5z"/>
<path d="M12031 1589 c0 -13 4 -33 9 -44 7 -14 8 -8 3 20 -7 46 -13 59 -12 24z"/>
<path d="M5000 1597 c0 -4 11 -29 24 -55 45 -90 42 -148 -6 -105 l-21 18 17
-26 c12 -19 15 -35 9 -55 -9 -35 -5 -64 10 -83 10 -11 9 -13 -3 -9 -37 13
-100 -44 -100 -92 l-1 -25 -21 30 c-12 17 -36 44 -53 60 -17 17 -40 43 -49 58
-10 15 -22 27 -27 27 -9 0 77 -118 119 -163 50 -53 -19 -68 -93 -19 -45 30
-50 31 -67 15 -10 -9 -18 -24 -18 -35 0 -16 -6 -18 -57 -12 -32 4 -66 11 -75
15 -21 11 -28 11 -28 0 0 -13 34 -23 100 -30 l55 -6 9 -59 c6 -43 5 -65 -3
-79 -14 -21 -6 -36 10 -20 6 6 9 40 7 82 -3 68 -2 71 20 71 12 0 22 5 22 10 0
6 -11 10 -25 10 -26 0 -29 7 -19 34 8 21 31 20 60 -3 23 -18 24 -20 7 -30 -17
-10 -17 -10 1 -11 15 0 16 -3 6 -15 -12 -14 -8 -29 8 -30 4 -1 19 -4 35 -8 15
-4 36 -3 47 3 12 7 21 7 25 0 15 -24 35 -9 35 25 0 36 30 108 51 120 6 4 21
-2 33 -14 28 -26 40 -27 26 -2 -8 17 -6 20 20 26 17 4 48 4 70 0 39 -7 40 -6
40 22 0 57 -29 199 -49 243 -11 25 -21 57 -21 72 0 15 -4 30 -10 33 -17 10
-11 -21 16 -92 14 -38 32 -108 40 -158 18 -119 18 -118 -8 -110 -39 12 -42 22
-23 64 12 27 16 52 12 75 -7 45 -56 111 -70 97 -7 -7 -19 11 -39 56 -25 61
-48 98 -48 80z m80 -353 c0 -2 -9 -4 -20 -4 -11 0 -20 4 -20 9 0 5 9 7 20 4
11 -3 20 -7 20 -9z m-130 -159 c0 -18 -4 -23 -15 -19 -8 4 -15 15 -15 25 0 10
7 19 15 19 9 0 15 -9 15 -25z"/>
<path d="M7715 1566 c-38 -6 -92 -19 -120 -29 -27 -9 -68 -21 -90 -26 -38 -8
-38 -9 -9 -10 17 -1 57 8 89 19 48 16 219 50 254 50 6 0 6 -11 0 -30 -12 -34
-22 -36 -64 -14 -39 21 -97 11 -141 -23 -24 -18 -31 -29 -24 -37 7 -9 -9 -18
-60 -35 -38 -12 -73 -27 -76 -33 -5 -8 -1 -9 12 -4 87 34 146 48 156 38 9 -9
7 -17 -8 -33 l-19 -22 26 17 c19 12 35 15 55 9 34 -8 64 -5 82 9 25 21 11 -7
-15 -30 -22 -18 -23 -20 -4 -8 22 14 25 13 56 -20 24 -26 41 -34 66 -34 l34 0
-47 -41 c-27 -22 -48 -45 -48 -50 0 -6 -13 -22 -30 -36 -16 -13 -30 -30 -30
-36 0 -6 38 26 84 72 46 46 88 81 94 77 21 -13 22 -56 2 -97 -28 -54 -23 -81
16 -92 28 -8 32 -14 38 -54 3 -25 6 -62 6 -82 1 -29 3 -33 11 -19 6 11 6 43 1
87 l-8 70 57 20 c32 11 67 17 79 14 11 -3 20 0 20 6 0 15 -21 14 -92 -5 -33
-8 -61 -14 -62 -12 -6 9 -34 88 -31 88 2 0 11 -7 20 -16 9 -9 18 -14 21 -11
11 11 15 95 5 101 -6 4 -8 19 -5 34 5 27 5 27 -48 27 -35 0 -64 6 -81 18 -26
17 -27 19 -12 40 20 28 19 39 -2 35 -16 -3 -18 5 -17 60 l1 62 -36 -1 c-20 -1
-67 -6 -106 -13z m111 -143 c-11 -11 -17 4 -9 23 7 18 8 18 11 1 2 -10 1 -21
-2 -24z m178 -87 c-7 -19 -35 -18 -41 1 -2 6 6 13 19 15 29 5 30 4 22 -16z
m-31 -133 c3 -5 8 -23 12 -40 6 -30 5 -33 -19 -33 -33 0 -41 15 -26 51 12 28
24 36 33 22z"/>
<path d="M835 1434 l-30 -25 33 17 c17 10 32 22 32 26 0 12 -2 11 -35 -18z"/>
<path d="M4956 1365 c34 -45 41 -45 12 0 -13 19 -27 35 -31 35 -4 0 4 -16 19
-35z"/>
<path d="M7695 1335 c-16 -13 -25 -24 -19 -25 6 0 21 11 34 25 30 32 24 32
-15 0z"/>
<path d="M4996 1307 c3 -10 9 -15 12 -12 3 3 0 11 -7 18 -10 9 -11 8 -5 -6z"/>
<path d="M883 1279 c-18 -12 -33 -23 -33 -25 0 -7 58 25 65 36 9 14 5 13 -32
-11z"/>
<path d="M8080 1280 l-35 -8 43 1 c23 0 42 5 42 9 0 9 1 9 -50 -2z"/>
<path d="M8173 1273 c24 -4 34 -19 77 -105 28 -56 50 -107 50 -115 0 -7 5 -13
10 -13 18 0 10 24 -44 130 -51 101 -55 105 -87 106 -27 2 -29 1 -6 -3z"/>
<path d="M12011 1173 c19 -23 36 -39 38 -37 3 3 -12 21 -34 42 l-38 37 34 -42z"/>
<path d="M11573 1065 c-56 -13 -110 -28 -121 -34 -22 -11 -43 -81 -41 -133 1
-22 4 -13 10 26 11 74 31 106 66 106 14 0 49 7 77 15 28 8 68 17 89 20 20 3
37 10 37 15 0 12 4 13 -117 -15z"/>
<path d="M4850 997 c0 -68 -22 -115 -57 -123 -15 -3 -50 -12 -78 -19 -27 -8
-74 -17 -103 -20 -28 -4 -50 -11 -47 -15 7 -11 56 -4 160 22 104 26 110 30
123 80 20 78 21 93 12 108 -7 11 -10 1 -10 -33z"/>
<path d="M1273 941 l5 -79 -50 -22 c-28 -12 -62 -20 -75 -17 -25 5 -41 -8 -20
-16 10 -4 41 3 132 28 16 5 24 -2 37 -32 10 -21 15 -27 11 -13 -15 59 0 84 36
61 11 -7 11 -15 0 -45 -13 -35 -49 -60 -57 -37 -2 6 -8 9 -13 5 -14 -9 -11
-94 4 -100 9 -3 12 -16 9 -36 -5 -30 -4 -31 24 -22 35 10 79 10 118 0 26 -6
28 -9 21 -43 -6 -33 -5 -35 9 -24 14 12 18 9 31 -22 8 -20 15 -48 15 -62 0
-14 7 -28 16 -32 23 -9 188 75 227 115 17 19 49 43 70 54 22 10 37 22 34 25
-8 8 -49 -17 -94 -58 -34 -31 -207 -129 -228 -129 -4 0 -5 15 -3 33 3 32 4 32
50 29 28 -2 59 3 77 12 38 20 74 71 67 94 -5 14 7 30 44 61 27 23 50 47 50 53
0 5 -25 -13 -56 -41 -30 -28 -62 -51 -69 -51 -20 0 -29 20 -16 33 6 6 11 15
11 20 0 5 -9 -2 -21 -17 -14 -18 -30 -26 -53 -26 -18 0 -40 -6 -51 -13 -16
-12 -21 -10 -44 16 -20 22 -38 30 -73 34 l-47 6 34 42 c33 40 44 65 28 65 -5
0 -25 -25 -46 -55 -21 -30 -43 -55 -48 -55 -5 0 -14 12 -20 28 -9 21 -7 39 7
79 20 61 10 83 -36 83 -26 0 -27 3 -33 60 -4 32 -4 66 -1 75 4 8 1 15 -6 15
-10 0 -12 -20 -7 -79z m72 -291 c3 -6 -4 -14 -17 -19 -28 -10 -30 -9 -22 13 7
18 29 21 39 6z m175 -82 c0 -19 -2 -20 -10 -8 -13 19 -13 30 0 30 6 0 10 -10
10 -22z"/>
<path d="M4310 1015 c0 -5 6 -32 13 -60 17 -70 16 -109 -5 -113 -10 -2 -19 5
-23 18 -4 12 -9 19 -11 17 -3 -2 0 -16 7 -29 9 -21 8 -30 -6 -52 -10 -16 -16
-38 -13 -56 6 -38 -5 -39 -19 -2 -11 26 -11 26 -7 2 4 -22 0 -27 -31 -38 -24
-9 -41 -25 -54 -49 l-18 -36 -19 52 c-10 28 -26 59 -36 68 -16 15 -17 14 -8
-16 5 -18 20 -52 33 -76 28 -49 26 -55 -14 -55 -20 0 -41 13 -74 48 l-45 47
-29 -31 c-26 -29 -30 -30 -52 -18 -13 7 -31 13 -40 14 -9 0 -28 9 -43 21 -14
11 -26 16 -26 10 0 -14 34 -35 92 -56 51 -19 48 -10 33 -107 -3 -17 -13 -40
-22 -50 -14 -16 -14 -18 0 -18 17 0 32 39 43 108 6 38 9 43 28 38 12 -3 32 -6
46 -6 23 -1 24 -2 8 -14 -10 -7 -18 -16 -18 -19 0 -12 71 -39 90 -34 10 3 24
-1 31 -9 20 -24 36 -15 44 22 4 22 20 50 42 72 l36 36 21 -27 c26 -32 36 -35
29 -7 -5 17 0 20 31 20 20 0 48 -7 62 -16 19 -13 28 -14 36 -6 16 16 23 228 9
272 -9 31 -10 29 -4 -23 3 -31 2 -100 -2 -152 l-7 -95 -29 17 c-35 21 -36 33
-5 62 35 33 41 82 17 137 -14 30 -26 44 -34 41 -11 -4 -17 12 -26 62 -10 58
-31 115 -31 86z m-15 -345 c3 -5 -1 -10 -9 -10 -9 0 -16 5 -16 10 0 6 4 10 9
10 6 0 13 -4 16 -10z m-285 -31 c27 -37 22 -43 -25 -35 -37 7 -47 30 -23 54
18 18 24 15 48 -19z m140 -104 c0 -28 -15 -34 -24 -9 -10 25 -7 34 9 34 9 0
15 -9 15 -25z"/>
<path d="M8447 968 c-54 -21 -115 -49 -135 -63 -20 -14 -55 -30 -77 -37 -22
-6 -34 -13 -27 -15 8 -3 55 15 105 41 78 39 216 96 232 96 3 0 5 -10 5 -23 0
-36 -16 -46 -55 -34 -45 13 -78 3 -125 -40 -30 -26 -38 -39 -30 -48 8 -9 -6
-23 -56 -54 -37 -23 -64 -44 -61 -47 3 -3 25 7 49 23 75 50 95 58 113 43 14
-12 14 -15 -2 -34 -16 -18 -14 -18 8 2 17 15 36 22 56 20 17 -1 42 6 57 15 38
26 32 12 -25 -54 -28 -33 -46 -59 -40 -59 6 0 11 3 11 8 0 4 18 27 38 51 l38
43 39 -27 c29 -19 48 -25 68 -21 34 7 34 1 -3 -48 -33 -43 -42 -78 -15 -56 8
7 27 34 42 61 14 27 30 49 34 49 5 0 16 -11 25 -25 15 -23 15 -32 4 -81 -16
-64 -8 -78 43 -77 29 1 34 -3 46 -36 7 -20 15 -51 18 -69 3 -18 9 -35 14 -38
16 -9 10 39 -11 94 -11 29 -20 56 -20 60 0 10 85 62 117 71 15 4 23 10 17 14
-6 3 -41 -10 -78 -28 -75 -39 -76 -39 -76 -24 0 6 -9 24 -21 40 -11 16 -16 29
-10 29 5 0 13 -4 16 -10 3 -5 11 -10 16 -10 14 0 1 92 -15 105 -6 6 -10 21 -8
34 3 22 1 23 -25 16 -43 -12 -94 -14 -120 -4 -20 7 -21 12 -13 34 14 38 13 50
-5 35 -9 -7 -17 -11 -19 -9 -12 14 -25 75 -20 94 9 36 -14 34 -119 -7z m123
-120 c0 -5 -4 -8 -10 -8 -5 0 -10 10 -10 23 0 18 2 19 10 7 5 -8 10 -18 10
-22z m190 -35 c-1 -21 -19 -35 -36 -29 -18 7 -18 8 0 22 22 15 36 18 36 7z
m20 -204 c0 -14 -7 -19 -25 -19 -32 0 -39 18 -25 56 l12 29 19 -24 c10 -13 19
-32 19 -42z"/>
<path d="M4410 949 c0 -17 4 -28 10 -24 6 3 10 17 10 31 0 13 -4 24 -10 24 -5
0 -10 -14 -10 -31z"/>
<path d="M11537 953 c-4 -3 -7 -39 -7 -80 0 -73 0 -73 -27 -74 l-28 -1 28 -10
c31 -11 33 -34 5 -52 -13 -8 -23 -5 -43 14 -19 18 -22 26 -13 32 9 5 7 8 -7 8
-19 1 -19 2 3 20 l23 19 -38 16 c-21 9 -48 13 -60 10 -12 -3 -25 -1 -28 5 -13
21 -33 8 -38 -25 -6 -38 -42 -95 -60 -95 -6 0 -21 10 -34 22 -23 21 -23 21
-23 1 0 -16 -5 -19 -27 -16 -16 3 -42 12 -60 21 -18 9 -34 14 -37 11 -9 -8
-28 -141 -36 -244 -4 -55 -11 -109 -15 -120 -6 -16 -5 -18 5 -8 8 8 16 51 21
110 7 92 28 243 35 252 6 7 44 -31 44 -44 0 -7 -11 -24 -24 -38 -13 -14 -27
-40 -31 -58 -9 -41 13 -122 31 -115 11 4 14 -9 14 -62 0 -37 5 -74 10 -82 7
-10 10 11 9 69 -1 60 3 86 12 92 20 13 29 11 29 -5 0 -8 4 -18 10 -21 7 -4 7
3 0 20 -8 21 -6 32 11 55 17 22 20 37 16 62 -6 31 -6 32 8 14 8 -11 15 -15 15
-9 0 7 10 15 23 19 30 9 57 34 69 64 9 24 11 23 39 -32 16 -32 34 -58 39 -58
16 0 12 12 -26 74 -27 46 -32 61 -22 67 25 16 49 9 100 -32 l52 -41 22 25 c12
14 23 30 25 35 4 9 93 0 139 -14 22 -7 23 -6 12 8 -8 10 -38 19 -82 23 l-69 7
-7 44 c-3 25 -4 63 0 84 6 40 5 46 -7 33z m-192 -118 c0 -10 -6 -20 -12 -22
-8 -3 -13 5 -13 22 0 17 5 25 13 23 6 -3 12 -13 12 -23z m-145 -125 c8 -5 11
-10 5 -10 -5 0 -17 5 -25 10 -8 5 -10 10 -5 10 6 0 17 -5 25 -10z"/>
<path d="M968 945 c-10 -10 26 -97 74 -182 l42 -73 70 1 c39 0 80 4 91 8 11 5
-18 6 -66 3 l-86 -5 -46 88 c-26 48 -47 92 -47 99 -1 21 -25 68 -32 61z"/>
<path d="M1492 834 c-12 -19 -20 -34 -18 -34 7 0 49 61 44 65 -2 2 -13 -12
-26 -31z"/>
<path d="M4200 843 c1 -11 39 -80 40 -72 0 11 -30 79 -35 79 -3 0 -5 -3 -5 -7z"/>
<path d="M4048 791 c9 -16 18 -28 20 -27 5 6 -21 56 -29 56 -5 0 0 -13 9 -29z"/>
<path d="M8930 789 c-23 -7 -23 -7 8 -8 17 -1 32 -4 32 -8 0 -5 25 -34 55 -66
30 -31 62 -71 72 -87 17 -30 33 -39 33 -20 0 11 -104 133 -146 171 -23 20 -35
24 -54 18z"/>
<path d="M8833 764 c-18 -8 -33 -17 -33 -20 0 -3 8 -3 18 1 9 4 33 14 52 21
21 8 27 13 15 13 -11 0 -35 -7 -52 -15z"/>
<path d="M1594 703 c-15 -20 -23 -33 -16 -29 13 8 56 66 49 66 -3 0 -17 -17
-33 -37z"/>
<path d="M1549 643 c-13 -16 -12 -17 4 -4 16 13 21 21 13 21 -2 0 -10 -8 -17
-17z"/>
<path d="M8583 618 c-19 -25 -35 -61 -24 -54 6 4 18 20 26 37 16 30 15 38 -2
17z"/>
<path d="M9285 573 c-38 -30 -98 -82 -132 -114 -34 -32 -66 -59 -72 -59 -6 0
-11 -5 -11 -10 0 -19 57 18 92 59 34 40 185 161 201 161 4 0 7 -15 5 -32 -3
-31 -6 -33 -44 -36 -50 -4 -97 -41 -119 -94 -14 -35 -14 -38 1 -38 10 0 -4
-22 -40 -62 -31 -34 -54 -63 -52 -66 3 -2 30 23 62 57 59 64 61 66 83 52 10
-7 11 -13 1 -32 -11 -23 -10 -23 4 -5 9 11 16 23 16 27 0 4 15 10 33 14 17 4
43 19 56 33 l23 27 -5 -24 c-4 -16 -3 -21 4 -14 8 8 19 7 37 -3 35 -18 46 -18
84 2 29 15 31 15 24 -2 -4 -11 -11 -37 -16 -59 -5 -22 -14 -64 -21 -93 -6 -29
-9 -56 -6 -59 4 -3 9 8 12 23 4 16 13 49 21 74 7 25 16 64 20 88 4 23 10 45
14 47 4 3 19 -5 34 -16 20 -16 26 -29 26 -60 0 -70 30 -96 78 -70 14 7 25 0
55 -37 21 -26 45 -56 52 -67 11 -15 14 -16 15 -5 0 8 -20 40 -45 70 -25 30
-45 58 -45 61 0 15 72 99 85 99 8 0 17 5 20 10 3 6 -1 10 -9 10 -9 0 -37 -22
-63 -50 -26 -27 -50 -50 -53 -50 -3 1 -21 15 -40 32 l-35 30 28 -4 c30 -6 33
2 15 32 -11 17 -8 24 16 49 15 16 48 40 71 52 l43 23 41 -27 c22 -15 45 -27
50 -27 5 0 32 -16 60 -35 54 -37 65 -42 59 -24 -2 7 -51 38 -108 69 l-105 58
-35 -21 c-19 -11 -51 -35 -70 -53 -35 -32 -35 -32 -57 -14 -13 10 -23 25 -23
32 0 27 -14 28 -40 3 -19 -18 -38 -25 -75 -27 l-50 -3 3 33 c3 31 -11 45 -21
20 -7 -18 -45 28 -55 66 -4 16 -12 31 -17 32 -6 2 -41 -22 -80 -53z m325 -82
c0 -21 -26 -36 -36 -20 -6 11 13 39 27 39 5 0 9 -9 9 -19z m-190 -12 c0 -5 -4
-9 -10 -9 -5 0 -10 7 -10 16 0 8 5 12 10 9 6 -3 10 -10 10 -16z m256 -134 c30
-30 27 -49 -8 -53 -23 -3 -26 1 -30 37 -4 48 3 51 38 16z"/>
<path d="M10623 582 c-17 -26 -34 -57 -38 -70 -5 -18 -11 -21 -33 -15 -15 3
-32 13 -38 22 -10 13 -15 13 -28 2 -8 -7 -18 -20 -21 -29 -5 -18 -64 -62 -82
-62 -6 0 -17 15 -23 33 -10 24 -14 27 -17 15 -3 -10 -7 -18 -10 -18 -15 0 -63
37 -74 57 -7 13 -17 22 -23 20 -15 -5 -124 -186 -137 -227 -6 -19 -23 -50 -36
-68 -14 -18 -23 -36 -20 -38 7 -8 44 48 67 102 12 26 44 86 72 132 l51 85 17
-24 c23 -30 17 -43 -29 -61 -26 -10 -42 -26 -54 -50 -22 -46 -23 -108 -2 -108
12 0 10 -10 -8 -53 -28 -63 -41 -111 -29 -103 6 3 13 18 17 33 24 99 78 158
88 96 4 -28 4 -28 6 2 1 23 9 35 31 49 19 11 33 29 37 47 3 16 10 29 14 29 5
0 7 -12 4 -27 -4 -20 -3 -23 3 -9 6 13 20 19 50 20 28 2 50 10 66 25 l24 23 5
-54 c2 -29 11 -78 20 -108 l15 -55 -5 70 c-3 39 -9 90 -13 115 -5 25 -5 49 -1
53 17 17 63 -18 87 -65 27 -53 51 -61 84 -28 l20 20 53 -26 c28 -15 57 -34 64
-43 12 -17 30 -10 19 8 -4 6 -34 24 -66 42 -35 19 -60 38 -60 48 0 30 22 96
38 114 8 9 12 20 8 24 -11 11 -22 -8 -46 -75 -22 -59 -25 -63 -49 -58 -25 5
-25 5 -3 -6 27 -14 28 -34 3 -48 -27 -14 -29 -14 -46 20 -19 37 -19 40 3 41
11 1 8 4 -8 9 l-25 7 28 8 c33 9 34 18 6 37 l-21 14 25 49 c49 97 48 97 157
85 52 -6 111 -13 130 -16 24 -4 32 -3 25 4 -11 11 -154 32 -219 32 -38 0 -43
-4 -73 -48z m-116 -96 c-4 -9 -13 -16 -21 -16 -13 0 -14 4 -4 25 12 28 35 19
25 -9z m-171 -73 c-7 -7 -26 7 -26 19 0 6 6 6 15 -2 9 -7 13 -15 11 -17z"/>
<path d="M11424 598 c8 -18 19 -34 25 -36 6 -2 2 12 -10 32 -26 45 -32 46 -15
4z"/>
<path d="M3510 578 c0 -77 -11 -118 -31 -118 -10 0 -19 9 -22 23 -3 18 -5 16
-6 -7 0 -17 -11 -40 -22 -52 -12 -13 -25 -38 -29 -56 l-7 -33 -11 25 c-6 14
-11 19 -11 13 -1 -7 -13 -13 -27 -13 -32 0 -64 -16 -86 -44 -17 -21 -18 -20
-18 21 0 40 -13 106 -31 163 -9 28 -2 -61 12 -154 5 -33 7 -62 4 -64 -2 -2
-16 0 -32 5 -21 7 -35 24 -55 66 -30 62 -42 67 -80 38 l-24 -19 -46 42 c-25
24 -48 49 -50 57 -3 8 -9 11 -13 7 -5 -5 18 -34 49 -65 l57 -57 -18 -41 c-10
-22 -31 -52 -46 -67 -22 -21 -25 -28 -13 -28 16 0 69 74 81 111 6 17 9 17 50
-3 29 -14 40 -25 33 -29 -7 -4 -16 -5 -20 -3 -4 3 -8 -1 -8 -9 0 -18 52 -67
72 -67 9 0 18 -7 22 -15 9 -24 33 -18 51 13 15 25 82 72 102 72 5 0 15 -15 22
-32 13 -30 14 -31 18 -11 2 13 7 23 9 23 12 0 71 -34 92 -53 15 -14 25 -18 33
-10 21 21 77 190 84 253 4 36 11 75 16 88 5 12 5 22 0 22 -11 0 -17 -27 -26
-105 -6 -50 -65 -228 -80 -244 -3 -2 -14 4 -25 14 -21 19 -27 45 -11 45 5 0
26 15 45 34 32 30 36 39 36 84 0 62 -7 82 -26 75 -9 -3 -13 0 -10 8 12 36 16
139 6 139 -5 0 -10 -19 -10 -42z m-385 -230 c9 -34 1 -35 -45 -7 l-34 21 24
20 c27 22 44 12 55 -34z m281 -55 c-7 -7 -26 7 -26 19 0 6 6 6 15 -2 9 -7 13
-15 11 -17z m-176 -57 c0 -20 -26 -40 -35 -26 -10 16 2 40 20 40 8 0 15 -6 15
-14z"/>
<path d="M2050 578 c0 -13 14 -48 31 -78 l30 -55 -48 -42 c-28 -26 -57 -43
-72 -43 -18 0 -22 -3 -14 -11 13 -13 57 8 106 51 l34 29 39 -40 c36 -37 37
-40 12 -30 -15 6 -30 6 -33 2 -7 -13 23 -81 39 -87 8 -3 17 -16 20 -30 8 -29
19 -30 56 -4 36 25 124 32 126 10 4 -58 4 -57 15 -37 10 18 13 17 45 -14 19
-18 34 -38 34 -45 0 -6 6 -17 14 -23 11 -9 24 -1 64 41 71 74 107 122 123 160
7 18 23 47 36 64 13 17 23 35 23 40 -1 16 -40 -39 -70 -98 -26 -50 -138 -188
-159 -196 -10 -3 -33 49 -26 57 4 3 27 13 52 21 26 8 55 27 65 41 22 30 37
109 20 109 -6 0 2 28 18 63 43 89 37 102 -7 16 -41 -78 -61 -95 -70 -58 l-6
23 -8 -23 c-5 -12 -22 -26 -37 -32 -16 -5 -35 -21 -42 -34 -7 -14 -17 -25 -22
-25 -5 0 -4 9 2 19 14 28 13 38 -3 17 -11 -15 -17 -16 -40 -5 -21 9 -36 10
-64 1 -20 -6 -39 -10 -41 -7 -2 2 4 27 13 55 11 33 14 55 8 61 -10 10 -26 -33
-38 -103 -8 -43 -11 -44 -43 -22 -17 12 -22 25 -22 59 0 24 -5 56 -10 71 -9
23 -14 26 -45 21 -32 -5 -36 -3 -59 38 -15 24 -26 53 -26 64 0 11 -4 23 -10
26 -6 3 -10 -4 -10 -17z m140 -158 c0 -47 -10 -50 -39 -14 -23 30 -14 54 20
54 15 0 19 -8 19 -40z m57 -157 c3 -7 -5 -17 -16 -23 -18 -9 -21 -8 -21 8 0
32 28 43 37 15z m188 -4 c11 -17 -1 -21 -15 -4 -8 9 -8 15 -2 15 6 0 14 -5 17
-11z"/>
<path d="M11246 580 c3 -14 11 -32 16 -40 6 -10 7 -7 2 10 -3 14 -11 32 -16
40 -6 10 -7 7 -2 -10z"/>
<path d="M2316 499 c-8 -42 0 -50 9 -9 4 17 5 34 2 36 -2 3 -7 -10 -11 -27z"/>
<path d="M4028 462 c-10 -27 -27 -61 -38 -75 -18 -23 -26 -25 -68 -22 -141 13
-225 14 -214 3 7 -7 64 -13 141 -16 l129 -5 27 43 c30 48 49 94 43 110 -2 6
-11 -11 -20 -38z"/>
<path d="M3370 452 l5 -47 3 39 c2 21 0 42 -5 47 -4 4 -6 -13 -3 -39z"/>
<path d="M2461 419 c-6 -18 -11 -37 -10 -43 0 -6 7 7 15 28 8 22 12 41 10 43
-2 2 -9 -10 -15 -28z"/>
<path d="M1790 405 c0 -7 41 -52 92 -100 83 -78 95 -86 122 -81 36 7 141 55
135 61 -3 2 -27 -7 -54 -20 -96 -45 -92 -46 -199 59 -53 52 -96 89 -96 81z"/>
<path d="M9346 344 c-9 -20 -15 -39 -12 -41 3 -3 12 12 21 32 20 49 14 56 -9
9z"/>
<path d="M10323 270 c0 -25 2 -35 4 -22 2 12 2 32 0 45 -2 12 -4 2 -4 -23z"/>
<path d="M3059 168 l-57 -57 -83 30 c-46 17 -103 41 -126 55 -45 26 -53 28
-53 16 0 -13 115 -67 193 -91 l68 -21 38 31 c36 28 87 88 79 93 -1 1 -28 -24
-59 -56z"/>
</g>
</svg>
